<?xml version="1.0" encoding="UTF-8"?>
<svg width="91px" height="91px" viewBox="0 0 91 91" version="1.1" xmlns="http://www.w3.org/2000/svg" xmlns:xlink="http://www.w3.org/1999/xlink">
    <!-- Generator: Sketch 42 (36781) - http://www.bohemiancoding.com/sketch -->
    <title>accountable</title>
    <desc>Created with Sketch.</desc>
    <defs></defs>
    <g id="Page-7" stroke="none" stroke-width="1" fill="none" fill-rule="evenodd">
        <g id="accountable" fill-rule="nonzero">
            <g id="Laag_1">
                <circle id="Oval" fill="#FEFEFE" cx="45.4" cy="45.4" r="45.4"></circle>
                <path d="M72.1,45.8 L67.5,31.2 L67.8,31.2 C69.7,31.2 71.3,29.6 71.3,27.7 C71.3,25.8 69.7,24.2 67.8,24.2 L54.8,24.2 L54.4,23.3 C52.7,19.7 49.1,17.5 45.2,17.5 C41.3,17.5 37.7,19.8 36,23.3 L35.6,24.2 L22.4,24.2 C20.5,24.2 18.9,25.8 18.9,27.7 C18.9,29.6 20.5,31.2 22.4,31.2 L22.7,31.2 L18.1,45.8 L14.1,45.8 L14.1,47 C14.1,52.7 18.7,57.3 24.4,57.3 C30.1,57.3 34.7,52.7 34.7,47 L34.7,45.8 L30.7,45.8 L26,31.2 L39.5,31.2 C40,32 40.7,32.8 41.6,33.3 L41.6,62.9 L39,62.9 L39,66.6 L35.9,66.6 C32,66.6 28.8,69.8 28.8,73.7 L28.8,76 L61.5,76 L61.5,73.7 C61.5,69.8 58.3,66.6 54.4,66.6 L51.3,66.6 L51.3,62.9 L48.7,62.9 L48.7,33.3 C49.5,32.8 50.3,32.1 50.8,31.2 L64.3,31.2 L59.7,45.8 L55.7,45.8 L55.7,47 C55.7,52.7 60.3,57.3 66,57.3 C71.7,57.3 76.3,52.7 76.3,47 L76.3,45.8 L72.1,45.8 Z M31.1,73.6 C31.2,71 33.3,69 35.8,69 L54.3,69 C56.9,69 59,71.1 59,73.6 L31.1,73.6 Z M45.1,19.9 C48,19.9 50.8,21.6 52.1,24.2 L50.7,24.2 C49.5,22.3 47.4,21.1 45.1,21.1 C42.8,21.1 40.7,22.3 39.5,24.2 L38.1,24.2 C39.4,21.6 42.2,19.9 45.1,19.9 Z M46.9,31.6 C45.8,32.1 44.5,32.1 43.3,31.6 C42.4,31.2 41.7,30.5 41.3,29.6 C41,29 40.9,28.4 40.9,27.8 C40.9,27.2 41,26.6 41.3,26 C42,24.5 43.5,23.6 45.1,23.6 C46.7,23.6 48.2,24.6 48.9,26 C49.2,26.6 49.3,27.2 49.3,27.8 C49.3,28.4 49.2,29 48.9,29.6 L49.4,29.8 L48.9,29.6 C48.5,30.4 47.8,31.1 46.9,31.6 Z M46.2,34.3 L46.2,62.9 L44,62.9 L44,34.3 C44.7,34.4 45.5,34.4 46.2,34.3 Z M51.7,26.6 L67.9,26.6 C68.5,26.6 69,27.1 69,27.7 C69,28.3 68.5,28.8 67.9,28.8 L51.7,28.8 C51.8,28.4 51.8,28.1 51.8,27.7 C51.8,27.3 51.7,27 51.7,26.6 Z M62.1,45.8 L65.8,34 L69.5,45.8 L62.1,45.8 Z M73.7,48.3 C73.1,52.1 69.8,55 65.9,55 C62,55 58.7,52.1 58.1,48.3 L73.7,48.3 Z M16.5,48.3 L32.1,48.3 C31.5,52.1 28.2,55 24.3,55 C20.5,55 17.1,52.1 16.5,48.3 Z M20.6,45.8 L24.4,34 L28.1,45.8 L20.6,45.8 Z M38.5,28.8 L22.4,28.8 C21.8,28.8 21.3,28.3 21.3,27.7 C21.3,27.1 21.8,26.6 22.4,26.6 L38.6,26.6 C38.5,27 38.5,27.3 38.5,27.7 C38.5,28.1 38.5,28.5 38.5,28.8 Z" id="Shape" fill="#000053"></path>
            </g>
        </g>
    </g>
</svg>