<?xml version="1.0" encoding="UTF-8"?>
<svg width="91px" height="94px" viewBox="0 0 91 94" version="1.1" xmlns="http://www.w3.org/2000/svg" xmlns:xlink="http://www.w3.org/1999/xlink">
    <!-- Generator: Sketch 42 (36781) - http://www.bohemiancoding.com/sketch -->
    <title>accountable</title>
    <desc>Created with Sketch.</desc>
    <defs>
        <polygon id="path-1" points="90.1964 94 0.0004 94 0.0004 0.5451 90.1964 0.5451 90.1964 94"></polygon>
    </defs>
    <g id="Page-7" stroke="none" stroke-width="1" fill="none" fill-rule="evenodd">
        <g id="accountable" transform="translate(0.000000, -1.000000)">
            <g id="Group-6" transform="translate(0.000000, 0.454600)">
                <g id="Group-3">
                    <mask id="mask-2" fill="white">
                        <use xlink:href="#path-1"></use>
                    </mask>
                    <g id="Clip-2"></g>
                    <path d="M45.0984,94.0001 C70.0054,94.0001 90.1964,73.0791 90.1964,47.2731 C90.1964,21.4661 70.0054,0.5451 45.0984,0.5451 C20.1914,0.5451 0.0004,21.4661 0.0004,47.2731 C0.0004,73.0791 20.1914,94.0001 45.0984,94.0001" id="Fill-1" fill="#FEFEFE" mask="url(#mask-2)"></path>
                </g>
                <path d="M60.9678,76.064 L29.2278,76.064 L29.2278,74.253 C29.2278,70.594 32.2048,67.618 35.8638,67.618 L54.3338,67.618 C57.9918,67.618 60.9678,70.594 60.9678,74.253 L60.9678,76.064 Z M30.6438,74.648 L59.5508,74.648 L59.5508,74.253 C59.5508,71.376 57.2108,69.034 54.3338,69.034 L35.8638,69.034 C32.9858,69.034 30.6438,71.376 30.6438,74.253 L30.6438,74.648 Z" id="Fill-4" fill="#000053"></path>
            </g>
            <path d="M39.485,69.4886 L50.711,69.4886 L50.711,64.3866 L39.485,64.3866 L39.485,69.4886 Z M40.902,68.0726 L49.294,68.0726 L49.294,65.8036 L40.902,65.8036 L40.902,68.0726 Z" id="Fill-7" fill="#000053"></path>
            <g id="Group-20" transform="translate(19.000000, 22.454600)" fill="#000053">
                <path d="M29.1127,43.349 L23.0837,43.349 L23.0837,10.078 L24.0937,10.552 C25.3697,11.149 26.8277,11.149 28.1027,10.552 L29.1127,10.078 L29.1127,43.349 Z M24.5007,41.932 L27.6957,41.932 L27.6957,12.206 C26.6557,12.489 25.5407,12.489 24.5007,12.206 L24.5007,41.932 Z" id="Fill-8"></path>
                <path d="M48.8067,9.2863 L29.9037,9.2863 L30.3787,8.2763 C30.6757,7.6403 30.8277,6.9663 30.8277,6.2723 C30.8277,5.5773 30.6757,4.9043 30.3787,4.2673 L29.9037,3.2583 L48.8067,3.2583 C50.4697,3.2583 51.8207,4.6093 51.8207,6.2723 C51.8207,7.9343 50.4697,9.2863 48.8067,9.2863 M32.0317,7.8693 L48.8067,7.8693 C49.6877,7.8693 50.4047,7.1533 50.4047,6.2723 C50.4047,5.3913 49.6877,4.6743 48.8067,4.6743 L32.0317,4.6743 C32.1727,5.1933 32.2447,5.7283 32.2447,6.2723 C32.2447,6.8153 32.1727,7.3513 32.0317,7.8693" id="Fill-10"></path>
                <path d="M22.2928,9.2863 L3.3888,9.2863 C1.7268,9.2863 0.3758,7.9343 0.3758,6.2723 C0.3758,4.6093 1.7268,3.2583 3.3888,3.2583 L22.2928,3.2583 L21.8188,4.2673 C21.5208,4.9043 21.3688,5.5773 21.3688,6.2723 C21.3688,6.9663 21.5208,7.6403 21.8188,8.2763 L22.2928,9.2863 Z M3.3888,4.6743 C2.5088,4.6743 1.7928,5.3913 1.7928,6.2723 C1.7928,7.1533 2.5088,7.8693 3.3888,7.8693 L20.1658,7.8693 C20.0248,7.3513 19.9528,6.8153 19.9528,6.2723 C19.9528,5.7283 20.0248,5.1933 20.1658,4.6743 L3.3888,4.6743 Z" id="Fill-12"></path>
                <path d="M30.6786,4.9082 L30.3786,4.2672 C29.6006,2.6122 27.9206,1.5422 26.0986,1.5422 C24.2766,1.5422 22.5956,2.6122 21.8186,4.2672 L21.5186,4.9082 L20.2356,4.3062 L20.5376,3.6642 C21.5476,1.5152 23.7306,0.1262 26.0986,0.1262 C28.4666,0.1262 30.6496,1.5152 31.6596,3.6642 L31.9606,4.3062 L30.6786,4.9082 Z" id="Fill-14"></path>
                <path d="M28.0642,12.1346 L27.4622,10.8526 L28.1032,10.5516 C29.1022,10.0826 29.9092,9.2756 30.3782,8.2766 L30.6782,7.6356 L31.9612,8.2376 L31.6592,8.8796 C31.0512,10.1756 30.0022,11.2246 28.7062,11.8326 L28.0642,12.1346 Z" id="Fill-16"></path>
                <path d="M24.1328,12.1346 L23.4908,11.8326 C22.1948,11.2246 21.1468,10.1756 20.5378,8.8796 L20.2358,8.2376 L21.5188,7.6356 L21.8188,8.2766 C22.2878,9.2756 23.0948,10.0826 24.0938,10.5516 L24.7348,10.8526 L24.1328,12.1346 Z" id="Fill-18"></path>
            </g>
            <path d="M29.7535,48.7597 L18.9555,48.7597 L18.2805,47.8367 L23.6795,30.8177 L25.0295,30.8177 L30.4285,47.8367 L29.7535,48.7597 Z M19.9235,47.3437 L28.7855,47.3437 L24.3545,33.3747 L19.9235,47.3437 Z" id="Fill-21" fill="#000053"></path>
            <path d="M71.2416,48.7597 L60.4436,48.7597 L59.7686,47.8367 L65.1676,30.8177 L66.5176,30.8177 L71.9166,47.8367 L71.2416,48.7597 Z M61.4116,47.3437 L70.2736,47.3437 L65.8426,33.3747 L61.4116,47.3437 Z" id="Fill-22" fill="#000053"></path>
            <g id="Group-29" transform="translate(14.000000, 18.454600)" fill="#000053">
                <path d="M10.3542,39.4267 C4.9342,39.4267 0.5242,35.0167 0.5242,29.5967 L0.5242,28.8887 L20.1852,28.8887 L20.1852,29.5967 C20.1852,35.0167 15.7752,39.4267 10.3542,39.4267 L10.3542,39.4267 Z M1.9702,30.3047 C2.3312,34.6137 5.9542,38.0097 10.3542,38.0097 C14.7562,38.0097 18.3792,34.6137 18.7402,30.3047 L1.9702,30.3047 Z" id="Fill-23"></path>
                <path d="M51.8425,39.4267 C46.4215,39.4267 42.0115,35.0167 42.0115,29.5967 L42.0115,28.8887 L61.6725,28.8887 L61.6725,29.5967 C61.6725,35.0167 57.2625,39.4267 51.8425,39.4267 L51.8425,39.4267 Z M43.4565,30.3047 C43.8175,34.6137 47.4405,38.0097 51.8425,38.0097 C56.2425,38.0097 59.8655,34.6137 60.2265,30.3047 L43.4565,30.3047 Z" id="Fill-25"></path>
                <path d="M23.2827,7.3436 L22.0047,6.7346 L22.3087,6.0956 C23.9177,2.7166 27.3677,0.5326 31.0987,0.5326 C34.8297,0.5326 38.2787,2.7166 39.8867,6.0956 L40.1907,6.7346 L38.9127,7.3436 L38.6087,6.7046 C37.2337,3.8146 34.2857,1.9486 31.0987,1.9486 C27.9117,1.9486 24.9637,3.8166 23.5867,6.7046 L23.2827,7.3436 Z" id="Fill-27"></path>
            </g>
        </g>
    </g>
</svg>