<?xml version="1.0" encoding="UTF-8"?>
<svg width="91px" height="94px" viewBox="0 0 91 94" version="1.1" xmlns="http://www.w3.org/2000/svg" xmlns:xlink="http://www.w3.org/1999/xlink">
    <!-- Generator: Sketch 42 (36781) - http://www.bohemiancoding.com/sketch -->
    <title>consistent</title>
    <desc>Created with Sketch.</desc>
    <defs>
        <polygon id="path-1" points="90.1964 94 0.0004 94 0.0004 0.5451 90.1964 0.5451 90.1964 94"></polygon>
    </defs>
    <g id="Page-7" stroke="none" stroke-width="1" fill="none" fill-rule="evenodd">
        <g id="consistent" transform="translate(0.000000, -1.000000)">
            <g id="Group-28" transform="translate(0.000000, 0.454600)">
                <g id="Group-3">
                    <mask id="mask-2" fill="white">
                        <use xlink:href="#path-1"></use>
                    </mask>
                    <g id="Clip-2"></g>
                    <path d="M45.0984,94.0001 C70.0054,94.0001 90.1964,73.0791 90.1964,47.2731 C90.1964,21.4661 70.0054,0.5451 45.0984,0.5451 C20.1914,0.5451 0.0004,21.4661 0.0004,47.2731 C0.0004,73.0791 20.1914,94.0001 45.0984,94.0001" id="Fill-1" fill="#FEFEFE" mask="url(#mask-2)"></path>
                </g>
                <path d="M45.317,80.3315 L44.688,79.9435 C17.366,63.0815 22.747,43.6455 22.99,42.8255 L23.108,42.4265 L45.317,26.8155 L67.526,42.4265 L67.644,42.8255 C67.887,43.6455 73.269,63.0815 45.946,79.9435 L45.317,80.3315 Z M25.189,43.8905 C24.559,46.6585 22.067,62.8515 45.317,77.5145 C68.37,62.9705 66.01,46.5735 65.439,43.8865 L45.317,29.7415 L45.273,29.7725 L25.189,43.8905 Z" id="Fill-4" fill="#000053"></path>
                <path d="M45.317,80.3315 L44.688,79.9435 C17.366,63.0815 22.747,43.6455 22.99,42.8255 L23.108,42.4265 L45.317,26.8155 L67.526,42.4265 L67.644,42.8255 C67.887,43.6455 73.269,63.0815 45.946,79.9435 L45.317,80.3315 Z M25.189,43.8905 C24.559,46.6585 22.067,62.8515 45.317,77.5145 C68.37,62.9705 66.01,46.5735 65.439,43.8865 L45.317,29.7415 L45.273,29.7725 L25.189,43.8905 Z" id="Stroke-6" stroke="#FEFEFE" stroke-width="0.4"></path>
                <path d="M38.1545,65.8219 C37.9075,65.8219 37.6605,65.7459 37.4515,65.5939 C37.0315,65.2889 36.8555,64.7479 37.0155,64.2549 L39.4825,56.6609 L33.0245,51.9689 C32.6045,51.6639 32.4285,51.1239 32.5885,50.6309 C32.7485,50.1369 33.2085,49.8029 33.7275,49.8029 L41.7115,49.8029 L44.1785,42.2099 C44.4985,41.2229 46.1355,41.2229 46.4555,42.2099 L48.9225,49.8029 L56.9075,49.8029 C57.4265,49.8029 57.8865,50.1369 58.0465,50.6309 C58.2065,51.1239 58.0305,51.6639 57.6105,51.9689 L51.1515,56.6609 L53.6195,64.2549 C53.7795,64.7479 53.6035,65.2889 53.1845,65.5939 C52.7635,65.8979 52.1965,65.8979 51.7775,65.5939 L45.3175,60.8999 L38.8575,65.5939 C38.6485,65.7459 38.4015,65.8219 38.1545,65.8219 M45.3175,58.2239 C45.5645,58.2239 45.8105,58.3009 46.0205,58.4519 L50.2035,61.4909 L48.6055,56.5739 C48.4455,56.0809 48.6205,55.5409 49.0405,55.2359 L53.2235,52.1969 L48.0535,52.1969 C47.5345,52.1969 47.0755,51.8639 46.9145,51.3699 L45.3175,46.4539 L43.7205,51.3699 C43.5595,51.8639 43.1005,52.1969 42.5815,52.1969 L37.4115,52.1969 L41.5935,55.2359 C42.0135,55.5409 42.1885,56.0809 42.0285,56.5739 L40.4315,61.4909 L44.6135,58.4519 C44.8235,58.3009 45.0695,58.2239 45.3175,58.2239" id="Fill-8" fill="#000053"></path>
                <path d="M38.1545,65.8219 C37.9075,65.8219 37.6605,65.7459 37.4515,65.5939 C37.0315,65.2889 36.8555,64.7479 37.0155,64.2549 L39.4825,56.6609 L33.0245,51.9689 C32.6045,51.6639 32.4285,51.1239 32.5885,50.6309 C32.7485,50.1369 33.2085,49.8029 33.7275,49.8029 L41.7115,49.8029 L44.1785,42.2099 C44.4985,41.2229 46.1355,41.2229 46.4555,42.2099 L48.9225,49.8029 L56.9075,49.8029 C57.4265,49.8029 57.8865,50.1369 58.0465,50.6309 C58.2065,51.1239 58.0305,51.6639 57.6105,51.9689 L51.1515,56.6609 L53.6195,64.2549 C53.7795,64.7479 53.6035,65.2889 53.1845,65.5939 C52.7635,65.8979 52.1965,65.8979 51.7775,65.5939 L45.3175,60.8999 L38.8575,65.5939 C38.6485,65.7459 38.4015,65.8219 38.1545,65.8219 Z M45.3175,58.2239 C45.5645,58.2239 45.8105,58.3009 46.0205,58.4519 L50.2035,61.4909 L48.6055,56.5739 C48.4455,56.0809 48.6205,55.5409 49.0405,55.2359 L53.2235,52.1969 L48.0535,52.1969 C47.5345,52.1969 47.0755,51.8639 46.9145,51.3699 L45.3175,46.4539 L43.7205,51.3699 C43.5595,51.8639 43.1005,52.1969 42.5815,52.1969 L37.4115,52.1969 L41.5935,55.2359 C42.0135,55.5409 42.1885,56.0809 42.0285,56.5739 L40.4315,61.4909 L44.6135,58.4519 C44.8235,58.3009 45.0695,58.2239 45.3175,58.2239 Z" id="Stroke-10" stroke="#FEFEFE" stroke-width="0.4"></path>
                <path d="M66.0361,80.122 C65.8271,80.122 65.6171,80.067 65.4281,79.957 C62.4091,78.178 58.9631,75.342 55.1861,71.53 L56.8881,69.845 C59.3381,72.319 61.6301,74.356 63.7341,75.934 C62.6461,73.246 61.0751,70.196 59.0421,66.822 L61.0921,65.586 C64.1261,70.619 66.1771,74.998 67.1891,78.601 C67.3211,79.072 67.1541,79.575 66.7661,79.874 C66.5521,80.038 66.2941,80.122 66.0361,80.122" id="Fill-12" fill="#000053"></path>
                <path d="M66.0361,80.122 C65.8271,80.122 65.6171,80.067 65.4281,79.957 C62.4091,78.178 58.9631,75.342 55.1861,71.53 L56.8881,69.845 C59.3381,72.319 61.6301,74.356 63.7341,75.934 C62.6461,73.246 61.0751,70.196 59.0421,66.822 L61.0921,65.586 C64.1261,70.619 66.1771,74.998 67.1891,78.601 C67.3211,79.072 67.1541,79.575 66.7661,79.874 C66.5521,80.038 66.2941,80.122 66.0361,80.122 Z" id="Stroke-14" stroke="#FEFEFE" stroke-width="0.4"></path>
                <path d="M29.9387,39.0436 C28.3667,36.6566 26.7987,34.3886 26.7987,34.3886 L28.7677,33.0276 C28.7677,33.0276 30.3507,35.3166 31.9387,37.7266 L29.9387,39.0436 Z" id="Fill-16" fill="#000053"></path>
                <path d="M29.9387,39.0436 C28.3667,36.6566 26.7987,34.3886 26.7987,34.3886 L28.7677,33.0276 C28.7677,33.0276 30.3507,35.3166 31.9387,37.7266 L29.9387,39.0436 Z" id="Stroke-18" stroke="#FEFEFE" stroke-width="0.4"></path>
                <path d="M34.39,36.0526 C32.82,33.6676 31.252,31.4026 31.25,31.3976 L33.219,30.0366 C33.219,30.0366 34.803,32.3256 36.39,34.7356 L34.39,36.0526 Z" id="Fill-20" fill="#000053"></path>
                <path d="M34.39,36.0526 C32.82,33.6676 31.252,31.4026 31.25,31.3976 L33.219,30.0366 C33.219,30.0366 34.803,32.3256 36.39,34.7356 L34.39,36.0526 Z" id="Stroke-22" stroke="#FEFEFE" stroke-width="0.4"></path>
                <path d="M24.829,31.0922 C23.3,28.7702 19.386,23.9292 19.346,23.8812 L18.523,22.8642 L24.969,18.5322 L25.659,19.3832 C25.823,19.5852 29.688,24.3652 31.281,26.7852 L29.281,28.1012 C28.143,26.3722 25.682,23.2482 24.483,21.7432 L22.026,23.3942 C23.285,24.9752 25.664,28.0062 26.829,29.7762 L24.829,31.0922 Z" id="Fill-24" fill="#000053"></path>
                <path d="M24.829,31.0922 C23.3,28.7702 19.386,23.9292 19.346,23.8812 L18.523,22.8642 L24.969,18.5322 L25.659,19.3832 C25.823,19.5852 29.688,24.3652 31.281,26.7852 L29.281,28.1012 C28.143,26.3722 25.682,23.2482 24.483,21.7432 L22.026,23.3942 C23.285,24.9752 25.664,28.0062 26.829,29.7762 L24.829,31.0922 Z" id="Stroke-26" stroke="#FEFEFE" stroke-width="0.4"></path>
            </g>
            <polygon id="Fill-29" fill="#000053" points="21.8228 39.3363 18.6128 34.6723 35.6288 22.9493 38.8398 27.6163 36.8668 28.9723 35.0138 26.2803 21.9428 35.2853 23.7958 37.9783"></polygon>
            <polygon id="Stroke-30" stroke="#FEFEFE" stroke-width="0.4" points="21.8228 39.3363 18.6128 34.6723 35.6288 22.9493 38.8398 27.6163 36.8668 28.9723 35.0138 26.2803 21.9428 35.2853 23.7958 37.9783"></polygon>
            <g id="Group-47" transform="translate(23.000000, 18.454600)">
                <path d="M1.3596,62.0654 C1.1006,62.0654 0.8416,61.9804 0.6276,61.8154 C0.2406,61.5164 0.0746,61.0124 0.2076,60.5424 C1.2266,56.9444 3.2876,52.5694 6.3336,47.5404 L8.3816,48.7814 C6.3396,52.1514 4.7626,55.1984 3.6696,57.8834 C5.7756,56.3104 8.0716,54.2784 10.5296,51.8104 L12.2256,53.4994 C8.4376,57.3034 4.9856,60.1314 1.9646,61.9004 C1.7766,62.0114 1.5686,62.0654 1.3596,62.0654" id="Fill-31" fill="#000053"></path>
                <path d="M1.3596,62.0654 C1.1006,62.0654 0.8416,61.9804 0.6276,61.8154 C0.2406,61.5164 0.0746,61.0124 0.2076,60.5424 C1.2266,56.9444 3.2876,52.5694 6.3336,47.5404 L8.3816,48.7814 C6.3396,52.1514 4.7626,55.1984 3.6696,57.8834 C5.7756,56.3104 8.0716,54.2784 10.5296,51.8104 L12.2256,53.4994 C8.4376,57.3034 4.9856,60.1314 1.9646,61.9004 C1.7766,62.0114 1.5686,62.0654 1.3596,62.0654 Z" id="Stroke-33" stroke="#FEFEFE" stroke-width="0.4"></path>
                <path d="M37.548,21.0696 L35.552,19.7476 C37.143,17.3426 38.732,15.0556 38.732,15.0556 L40.698,16.4226 C40.695,16.4256 39.123,18.6886 37.548,21.0696" id="Fill-35" fill="#000053"></path>
                <path d="M37.548,21.0696 L35.552,19.7476 C37.143,17.3426 38.732,15.0556 38.732,15.0556 L40.698,16.4226 C40.695,16.4256 39.123,18.6886 37.548,21.0696 Z" id="Stroke-37" stroke="#FEFEFE" stroke-width="0.4"></path>
                <path d="M33.1028,18.0679 L31.1068,16.7479 C32.6978,14.3409 34.2878,12.0539 34.2878,12.0539 L36.2538,13.4209 C36.2508,13.4239 34.6788,15.6869 33.1028,18.0679" id="Fill-39" fill="#000053"></path>
                <path d="M33.1028,18.0679 L31.1068,16.7479 C32.6978,14.3409 34.2878,12.0539 34.2878,12.0539 L36.2538,13.4209 C36.2508,13.4239 34.6788,15.6869 33.1028,18.0679 Z" id="Stroke-41" stroke="#FEFEFE" stroke-width="0.4"></path>
                <path d="M42.6747,13.1301 L40.6787,11.8081 C41.8467,10.0421 44.2337,7.0161 45.4967,5.4381 L43.0427,3.7821 C41.8397,5.2831 39.3727,8.4021 38.2297,10.1291 L36.2327,8.8071 C37.8327,6.3911 41.7087,1.6201 41.8727,1.4191 L42.5637,0.5691 L48.9997,4.9151 L48.1747,5.9301 C48.1347,5.9791 44.2087,10.8121 42.6747,13.1301" id="Fill-43" fill="#000053"></path>
                <path d="M42.6747,13.1301 L40.6787,11.8081 C41.8467,10.0421 44.2337,7.0161 45.4967,5.4381 L43.0427,3.7821 C41.8397,5.2831 39.3727,8.4021 38.2297,10.1291 L36.2327,8.8071 C37.8327,6.3911 41.7087,1.6201 41.8727,1.4191 L42.5637,0.5691 L48.9997,4.9151 L48.1747,5.9301 C48.1347,5.9791 44.2087,10.8121 42.6747,13.1301 Z" id="Stroke-45" stroke="#FEFEFE" stroke-width="0.4"></path>
            </g>
            <polygon id="Fill-48" fill="#000053" points="68.6629 39.3804 66.6939 38.0184 68.5529 35.3294 55.5019 26.2944 53.6429 28.9824 51.6739 27.6204 54.8959 22.9614 71.8839 34.7234"></polygon>
            <polygon id="Stroke-49" stroke="#FEFEFE" stroke-width="0.4" points="68.6629 39.3804 66.6939 38.0184 68.5529 35.3294 55.5019 26.2944 53.6429 28.9824 51.6739 27.6204 54.8959 22.9614 71.8839 34.7234"></polygon>
        </g>
    </g>
</svg>