<?xml version="1.0" encoding="UTF-8"?>
<svg width="91px" height="91px" viewBox="0 0 91 91" version="1.1" xmlns="http://www.w3.org/2000/svg" xmlns:xlink="http://www.w3.org/1999/xlink">
    <!-- Generator: Sketch 42 (36781) - http://www.bohemiancoding.com/sketch -->
    <title>independent</title>
    <desc>Created with Sketch.</desc>
    <defs></defs>
    <g id="Page-7" stroke="none" stroke-width="1" fill="none" fill-rule="evenodd">
        <g id="independent" fill-rule="nonzero">
            <g id="Laag_1">
                <circle id="Oval" fill="#FEFEFE" cx="45.4" cy="45.4" r="45.4"></circle>
                <path d="M65.5,66.7 C64.4,66.7 63.4,67.1 62.6,67.7 L52.5,57.5 C54,56.1 55.2,54.3 55.7,52.2 L62.7,53.1 C62.7,53.7 63,54.3 63.4,54.9 C64.5,56.3 66.6,56.6 68,55.5 C69.4,54.4 69.7,52.3 68.6,50.9 C67.5,49.5 65.4,49.2 64,50.3 C63.6,50.6 63.3,51 63.1,51.4 L56,50.4 L56,49.6 C56,47.9 55.6,46.4 54.9,45 L59.5,40.4 C62.1,42.4 65.8,42.2 68.2,39.8 C70.8,37.2 70.8,33 68.2,30.4 C65.6,27.8 61.4,27.8 58.8,30.4 C56.5,32.7 56.2,36.4 58.2,39 L53.9,43.3 C52.2,40.9 49.6,39.3 46.4,39 L46.4,26.8 C49.6,26.4 52.2,23.6 52.2,20.2 C52.2,16.5 49.2,13.6 45.6,13.6 C41.9,13.6 39,16.6 39,20.2 C39,23.5 41.4,26.3 44.6,26.7 L44.6,39 C42,39.2 39.3,40.5 37.5,42.5 L30.8,35.8 C31.2,35.2 31.4,34.5 31.4,33.8 C31.4,31.6 29.6,29.8 27.4,29.8 C25.2,29.8 23.4,31.6 23.4,33.8 C23.4,36 25.2,37.8 27.4,37.8 C28.2,37.8 28.9,37.6 29.5,37.2 L36.4,44.1 C35.4,45.7 34.8,47.6 34.8,49.7 C34.8,50.2 34.8,50.8 34.9,51.3 L25.7,54.2 C24.3,51.2 20.9,49.7 17.7,50.7 C14.2,51.8 12.3,55.5 13.4,59 C14.5,62.5 18.2,64.4 21.7,63.3 C24.9,62.3 26.8,59.1 26.3,56 L35.4,53.1 C36.4,56.2 38.8,58.6 41.9,59.7 L40.5,64.6 C39.9,64.6 39.2,64.7 38.7,65 C37.1,65.9 36.5,67.9 37.4,69.5 C38.3,71.1 40.3,71.7 41.9,70.8 C43.5,69.9 44.1,67.9 43.2,66.3 C43,65.9 42.7,65.5 42.3,65.3 L43.8,60.2 C44.4,60.3 45,60.4 45.6,60.4 C47.6,60.4 49.6,59.8 51.2,58.8 L61.6,69.2 C61.2,69.9 61,70.6 61,71.4 C61,74 63.1,76 65.6,76 C68.2,76 70.2,73.9 70.2,71.4 C70.1,68.8 68,66.7 65.5,66.7 Z M67.1,52 C67.6,52.6 67.5,53.6 66.8,54 C66.2,54.5 65.2,54.4 64.8,53.7 C64.3,53.1 64.4,52.1 65.1,51.7 C65.7,51.2 66.6,51.4 67.1,52 Z M60.2,31.8 C62.1,29.9 65.1,29.9 66.9,31.8 C68.8,33.7 68.8,36.7 66.9,38.5 C65,40.4 62,40.4 60.2,38.5 C58.3,36.7 58.3,33.7 60.2,31.8 Z M27.4,36 C26.2,36 25.3,35 25.3,33.9 C25.3,32.7 26.3,31.8 27.4,31.8 C28.6,31.8 29.5,32.8 29.5,33.9 C29.5,35 28.6,36 27.4,36 Z M21.2,61.4 C18.7,62.2 16,60.8 15.2,58.3 C14.4,55.8 15.8,53.1 18.3,52.3 C20.8,51.5 23.5,52.9 24.3,55.4 C25.1,58 23.7,60.7 21.2,61.4 Z M40.9,69.1 C40.2,69.5 39.3,69.2 38.9,68.5 C38.5,67.8 38.8,66.9 39.5,66.5 C40.2,66.1 41.1,66.4 41.5,67.1 C41.8,67.8 41.6,68.7 40.9,69.1 Z M40.9,20.3 C40.9,17.7 43,15.5 45.7,15.5 C48.3,15.5 50.5,17.6 50.5,20.3 C50.5,23 48.3,25 45.6,25 C43,25 40.9,22.9 40.9,20.3 Z M45.4,58.4 C40.6,58.4 36.7,54.5 36.7,49.7 C36.7,44.9 40.6,41 45.4,41 C50.2,41 54.1,44.9 54.1,49.7 C54.1,54.5 50.2,58.4 45.4,58.4 Z M65.5,74.1 C64,74.1 62.7,72.9 62.7,71.3 C62.7,69.7 63.9,68.5 65.5,68.5 C67,68.5 68.3,69.7 68.3,71.3 C68.3,72.9 67,74.1 65.5,74.1 Z" id="Shape" fill="#000053"></path>
            </g>
        </g>
    </g>
</svg>