<?xml version="1.0" encoding="UTF-8"?>
<svg width="91px" height="94px" viewBox="0 0 91 94" version="1.1" xmlns="http://www.w3.org/2000/svg" xmlns:xlink="http://www.w3.org/1999/xlink">
    <!-- Generator: Sketch 42 (36781) - http://www.bohemiancoding.com/sketch -->
    <title>independent</title>
    <desc>Created with Sketch.</desc>
    <defs>
        <polygon id="path-1" points="90.1964 94 0.0004 94 0.0004 0.5451 90.1964 0.5451 90.1964 94"></polygon>
    </defs>
    <g id="Page-7" stroke="none" stroke-width="1" fill="none" fill-rule="evenodd">
        <g id="independent" transform="translate(0.000000, -1.000000)">
            <g id="Group-3" transform="translate(0.000000, 0.454600)">
                <mask id="mask-2" fill="white">
                    <use xlink:href="#path-1"></use>
                </mask>
                <g id="Clip-2"></g>
                <path d="M45.0984,94.0001 C70.0054,94.0001 90.1964,73.0791 90.1964,47.2731 C90.1964,21.4661 70.0054,0.5451 45.0984,0.5451 C20.1914,0.5451 0.0004,21.4661 0.0004,47.2731 C0.0004,73.0791 20.1914,94.0001 45.0984,94.0001" id="Fill-1" fill="#FEFEFE" mask="url(#mask-2)"></path>
            </g>
            <path d="M43.4758,79.1669 C26.4778,79.1669 12.6488,65.3379 12.6488,48.3399 C12.6488,31.3409 26.4778,17.5119 43.4758,17.5119 C48.8518,17.5119 54.1438,18.9169 58.7798,21.5739 C59.5578,22.0189 59.8278,23.0109 59.3808,23.7879 C58.9358,24.5669 57.9408,24.8319 57.1668,24.3899 C53.0208,22.0129 48.2858,20.7569 43.4758,20.7569 C28.2668,20.7569 15.8938,33.1299 15.8938,48.3399 C15.8938,63.5489 28.2668,75.9219 43.4758,75.9219 C56.0628,75.9219 67.0458,67.4209 70.1848,55.2489 C70.4118,54.3799 71.2978,53.8619 72.1628,54.0829 C73.0288,54.3059 73.5518,55.1909 73.3288,56.0579 C69.8188,69.6639 57.5438,79.1669 43.4758,79.1669" id="Fill-4" fill="#000053"></path>
            <path d="M43.4758,79.1669 C26.4778,79.1669 12.6488,65.3379 12.6488,48.3399 C12.6488,31.3409 26.4778,17.5119 43.4758,17.5119 C48.8518,17.5119 54.1438,18.9169 58.7798,21.5739 C59.5578,22.0189 59.8278,23.0109 59.3808,23.7879 C58.9358,24.5669 57.9408,24.8319 57.1668,24.3899 C53.0208,22.0129 48.2858,20.7569 43.4758,20.7569 C28.2668,20.7569 15.8938,33.1299 15.8938,48.3399 C15.8938,63.5489 28.2668,75.9219 43.4758,75.9219 C56.0628,75.9219 67.0458,67.4209 70.1848,55.2489 C70.4118,54.3799 71.2978,53.8619 72.1628,54.0829 C73.0288,54.3059 73.5518,55.1909 73.3288,56.0579 C69.8188,69.6639 57.5438,79.1669 43.4758,79.1669 Z" id="Stroke-6" stroke="#FEFEFE"></path>
            <path d="M53.2473,59.8079 C52.7973,57.6809 50.9133,56.6259 49.0893,55.6069 C48.0643,55.0329 47.0043,54.4409 46.2453,53.6819 C41.3843,48.8199 37.6943,49.5909 36.5753,50.0009 C35.9323,50.0939 34.6343,50.4159 33.4033,51.4839 C32.0563,51.0249 28.8733,48.7179 28.8733,46.7169 C28.8733,46.1959 28.6233,45.7059 28.2003,45.4009 C27.7753,45.0949 27.2323,45.0139 26.7373,45.1779 C26.0023,45.4219 25.4063,45.4279 25.1803,45.1969 C24.9753,44.9869 24.9293,44.5059 25.0773,44.1009 C25.1723,43.8339 25.3763,43.5069 25.7793,43.4649 C26.1413,43.4389 28.5913,43.4539 30.0573,43.4629 L32.1183,43.4719 C34.9303,43.4719 36.9863,39.2029 36.9863,36.9819 C36.9863,36.2119 36.9273,35.6229 36.8783,35.1419 C36.8493,34.8609 36.8133,34.5129 36.8323,34.4259 C36.8493,34.3839 36.9933,34.1369 37.9583,33.4119 C41.1433,31.0249 42.1033,30.3039 41.7553,28.8989 C41.4493,27.6719 40.2733,27.4859 39.4953,27.3639 C38.6333,27.2279 37.4513,27.0409 36.5103,26.0999 C35.5453,25.1339 34.3893,24.2019 33.0913,24.6039 C31.7983,25.0099 31.5633,26.3239 31.4243,27.1089 C31.4183,27.1479 31.4103,27.1899 31.4023,27.2339 C30.3773,27.1729 29.6673,26.8289 28.7023,24.8989 C28.3003,24.0959 27.3253,23.7709 26.5253,24.1729 C25.7233,24.5739 25.3983,25.5489 25.7993,26.3499 C27.7123,30.1749 29.8793,30.4919 32.1183,30.4919 C33.5413,30.4919 34.1373,29.4559 34.4093,28.5809 C35.2443,29.3549 36.1443,29.8129 36.9653,30.0979 C36.6083,30.3699 36.2663,30.6259 36.0133,30.8159 C33.7563,32.5079 33.4433,33.4619 33.6493,35.4719 C33.6903,35.8669 33.7413,36.3509 33.7413,36.9819 C33.7413,38.0249 32.6083,40.0369 32.1183,40.2269 L30.0773,40.2179 C26.9733,40.1979 25.8123,40.1989 25.4603,40.2359 C23.8763,40.4009 22.5913,41.4329 22.0253,42.9969 C21.7053,43.8809 21.6863,44.8019 21.8953,45.6459 C21.0273,45.3709 20.7763,45.0929 20.7613,45.0929 L20.7613,45.0939 C20.7593,43.0229 18.1593,40.1979 17.0403,39.0799 L14.7463,41.3729 C16.1213,42.7529 17.4433,44.5399 17.5163,45.0949 C17.5163,46.6979 18.6803,49.3769 26.3853,49.4159 C27.4853,51.5049 29.6083,53.2719 31.4873,54.1739 C30.8953,55.5329 30.4963,57.3169 30.4963,59.6969 C30.4963,59.8709 30.5243,60.0449 30.5803,60.2099 C31.3103,62.4039 32.3343,63.9859 33.2383,65.3819 C34.4253,67.2159 35.3633,68.6639 35.3633,71.0539 C35.3633,74.1139 35.9573,75.5849 36.6013,76.7189 C37.0443,77.4989 38.0333,77.7699 38.8123,77.3309 C39.5923,76.8889 39.8663,75.8979 39.4243,75.1189 C39.1183,74.5809 38.6083,73.6799 38.6083,71.0539 C38.6083,67.7059 37.2633,65.6279 35.9623,63.6189 C35.1633,62.3839 34.3383,61.1099 33.7423,59.4319 C33.8263,53.5329 36.6913,53.2219 36.9863,53.2069 C37.1963,53.2069 37.4663,53.1399 37.6603,53.0599 C37.7573,53.0219 40.0973,52.1229 43.9513,55.9769 C45.0273,57.0529 46.3433,57.7889 47.5053,58.4389 C48.7523,59.1359 49.9283,59.7939 50.0733,60.4799 C50.1493,60.8399 50.0693,61.7239 48.6683,63.5909 C46.9013,65.9469 45.6103,66.9059 44.5743,67.6769 C42.5283,69.1989 41.3193,70.3169 40.2623,75.6039 C40.0863,76.4819 40.6573,77.3369 41.5353,77.5129 C41.6423,77.5339 41.7483,77.5439 41.8553,77.5439 C42.6123,77.5439 43.2903,77.0109 43.4443,76.2399 C44.3093,71.9189 44.9983,71.4049 46.5103,70.2809 C47.6523,69.4319 49.2143,68.2699 51.2633,65.5379 C52.9653,63.2699 53.5953,61.4489 53.2473,59.8079" id="Fill-8" fill="#000053"></path>
            <path d="M53.2473,59.8079 C52.7973,57.6809 50.9133,56.6259 49.0893,55.6069 C48.0643,55.0329 47.0043,54.4409 46.2453,53.6819 C41.3843,48.8199 37.6943,49.5909 36.5753,50.0009 C35.9323,50.0939 34.6343,50.4159 33.4033,51.4839 C32.0563,51.0249 28.8733,48.7179 28.8733,46.7169 C28.8733,46.1959 28.6233,45.7059 28.2003,45.4009 C27.7753,45.0949 27.2323,45.0139 26.7373,45.1779 C26.0023,45.4219 25.4063,45.4279 25.1803,45.1969 C24.9753,44.9869 24.9293,44.5059 25.0773,44.1009 C25.1723,43.8339 25.3763,43.5069 25.7793,43.4649 C26.1413,43.4389 28.5913,43.4539 30.0573,43.4629 L32.1183,43.4719 C34.9303,43.4719 36.9863,39.2029 36.9863,36.9819 C36.9863,36.2119 36.9273,35.6229 36.8783,35.1419 C36.8493,34.8609 36.8133,34.5129 36.8323,34.4259 C36.8493,34.3839 36.9933,34.1369 37.9583,33.4119 C41.1433,31.0249 42.1033,30.3039 41.7553,28.8989 C41.4493,27.6719 40.2733,27.4859 39.4953,27.3639 C38.6333,27.2279 37.4513,27.0409 36.5103,26.0999 C35.5453,25.1339 34.3893,24.2019 33.0913,24.6039 C31.7983,25.0099 31.5633,26.3239 31.4243,27.1089 C31.4183,27.1479 31.4103,27.1899 31.4023,27.2339 C30.3773,27.1729 29.6673,26.8289 28.7023,24.8989 C28.3003,24.0959 27.3253,23.7709 26.5253,24.1729 C25.7233,24.5739 25.3983,25.5489 25.7993,26.3499 C27.7123,30.1749 29.8793,30.4919 32.1183,30.4919 C33.5413,30.4919 34.1373,29.4559 34.4093,28.5809 C35.2443,29.3549 36.1443,29.8129 36.9653,30.0979 C36.6083,30.3699 36.2663,30.6259 36.0133,30.8159 C33.7563,32.5079 33.4433,33.4619 33.6493,35.4719 C33.6903,35.8669 33.7413,36.3509 33.7413,36.9819 C33.7413,38.0249 32.6083,40.0369 32.1183,40.2269 L30.0773,40.2179 C26.9733,40.1979 25.8123,40.1989 25.4603,40.2359 C23.8763,40.4009 22.5913,41.4329 22.0253,42.9969 C21.7053,43.8809 21.6863,44.8019 21.8953,45.6459 C21.0273,45.3709 20.7763,45.0929 20.7613,45.0929 L20.7613,45.0939 C20.7593,43.0229 18.1593,40.1979 17.0403,39.0799 L14.7463,41.3729 C16.1213,42.7529 17.4433,44.5399 17.5163,45.0949 C17.5163,46.6979 18.6803,49.3769 26.3853,49.4159 C27.4853,51.5049 29.6083,53.2719 31.4873,54.1739 C30.8953,55.5329 30.4963,57.3169 30.4963,59.6969 C30.4963,59.8709 30.5243,60.0449 30.5803,60.2099 C31.3103,62.4039 32.3343,63.9859 33.2383,65.3819 C34.4253,67.2159 35.3633,68.6639 35.3633,71.0539 C35.3633,74.1139 35.9573,75.5849 36.6013,76.7189 C37.0443,77.4989 38.0333,77.7699 38.8123,77.3309 C39.5923,76.8889 39.8663,75.8979 39.4243,75.1189 C39.1183,74.5809 38.6083,73.6799 38.6083,71.0539 C38.6083,67.7059 37.2633,65.6279 35.9623,63.6189 C35.1633,62.3839 34.3383,61.1099 33.7423,59.4319 C33.8263,53.5329 36.6913,53.2219 36.9863,53.2069 C37.1963,53.2069 37.4663,53.1399 37.6603,53.0599 C37.7573,53.0219 40.0973,52.1229 43.9513,55.9769 C45.0273,57.0529 46.3433,57.7889 47.5053,58.4389 C48.7523,59.1359 49.9283,59.7939 50.0733,60.4799 C50.1493,60.8399 50.0693,61.7239 48.6683,63.5909 C46.9013,65.9469 45.6103,66.9059 44.5743,67.6769 C42.5283,69.1989 41.3193,70.3169 40.2623,75.6039 C40.0863,76.4819 40.6573,77.3369 41.5353,77.5129 C41.6423,77.5339 41.7483,77.5439 41.8553,77.5439 C42.6123,77.5439 43.2903,77.0109 43.4443,76.2399 C44.3093,71.9189 44.9983,71.4049 46.5103,70.2809 C47.6523,69.4319 49.2143,68.2699 51.2633,65.5379 C52.9653,63.2699 53.5953,61.4489 53.2473,59.8079 Z" id="Stroke-10" stroke="#FEFEFE"></path>
            <path d="M61.3185,56.46 L61.3125,56.46 C60.3995,56.457 52.4545,52.168 48.1835,46.433 C45.3205,42.591 44.4375,38.711 45.5575,34.902 C47.2185,29.251 51.5895,27.246 54.8285,27.246 C57.8695,27.246 60.0275,28.588 61.3185,29.738 C62.6125,28.583 64.7675,27.246 67.8085,27.246 C71.0475,27.246 75.4185,29.251 77.0805,34.902 C78.5525,39.909 77.2565,47.612 62.7235,55.882 C62.5485,55.982 62.4135,56.058 62.3245,56.111 C62.0475,56.33 61.6975,56.46 61.3185,56.46 M54.8285,30.49 C52.6085,30.49 49.8265,31.89 48.6725,35.817 C46.2245,44.135 58.1895,51.301 61.2615,52.98 C71.0615,47.369 75.5725,41.278 73.9655,35.817 C72.8125,31.89 70.0285,30.49 67.8085,30.49 C64.7975,30.49 63.0975,32.448 62.6495,33.049 C62.3435,33.457 61.8315,33.737 61.3215,33.737 L61.3195,33.737 C60.8095,33.737 60.2985,33.457 59.9905,33.049 C59.5395,32.449 57.8325,30.49 54.8285,30.49" id="Fill-12" fill="#000053"></path>
            <path d="M61.3185,56.46 L61.3125,56.46 C60.3995,56.457 52.4545,52.168 48.1835,46.433 C45.3205,42.591 44.4375,38.711 45.5575,34.902 C47.2185,29.251 51.5895,27.246 54.8285,27.246 C57.8695,27.246 60.0275,28.588 61.3185,29.738 C62.6125,28.583 64.7675,27.246 67.8085,27.246 C71.0475,27.246 75.4185,29.251 77.0805,34.902 C78.5525,39.909 77.2565,47.612 62.7235,55.882 C62.5485,55.982 62.4135,56.058 62.3245,56.111 C62.0475,56.33 61.6975,56.46 61.3185,56.46 Z M54.8285,30.49 C52.6085,30.49 49.8265,31.89 48.6725,35.817 C46.2245,44.135 58.1895,51.301 61.2615,52.98 C71.0615,47.369 75.5725,41.278 73.9655,35.817 C72.8125,31.89 70.0285,30.49 67.8085,30.49 C64.7975,30.49 63.0975,32.448 62.6495,33.049 C62.3435,33.457 61.8315,33.737 61.3215,33.737 L61.3195,33.737 C60.8095,33.737 60.2985,33.457 59.9905,33.049 C59.5395,32.449 57.8325,30.49 54.8285,30.49 Z" id="Stroke-14" stroke="#FEFEFE"></path>
        </g>
    </g>
</svg>