<?xml version="1.0" encoding="UTF-8"?>
<svg width="91px" height="91px" viewBox="0 0 91 91" version="1.1" xmlns="http://www.w3.org/2000/svg" xmlns:xlink="http://www.w3.org/1999/xlink">
    <!-- Generator: Sketch 42 (36781) - http://www.bohemiancoding.com/sketch -->
    <title>reciprocity</title>
    <desc>Created with Sketch.</desc>
    <defs></defs>
    <g id="Page-7" stroke="none" stroke-width="1" fill="none" fill-rule="evenodd">
        <g id="reciprocity" fill-rule="nonzero">
            <g id="Laag_1">
                <circle id="Oval" fill="#FEFEFE" cx="45.4" cy="45.4" r="45.4"></circle>
                <path d="M74.2,51.4 C73.5,51.2 72.8,51.6 72.6,52.4 C69.4,64.7 58.3,73.3 45.6,73.3 L45.3,73.3 L45.3,73.3 C46.2,68.9 47,68.3 48.5,67.2 C49.6,66.4 51.2,65.2 53.2,62.5 C54.8,60.3 55.5,58.6 55.1,57 C54.7,55 52.8,54 51.1,53 C50,52.4 49,51.8 48.2,51 C43.4,46.2 39.8,47 38.8,47.4 C38.1,47.5 36.9,47.8 35.7,48.8 L35.6,48.9 L35.4,48.8 C34,48.3 30.7,45.9 30.7,43.8 C30.7,43.4 30.5,43 30.1,42.7 C29.8,42.4 29.3,42.4 28.9,42.5 C28,42.8 27.4,42.8 27.1,42.4 C26.8,42.1 26.7,41.5 26.9,41 C27.1,40.5 27.4,40.2 27.8,40.2 L32.1,40.2 L34.2,40.2 C36.8,40.2 38.8,36.1 38.8,34 C38.8,33.2 38.7,32.7 38.7,32.2 C38.6,31.7 38.6,31.5 38.7,31.4 C38.8,31.1 39.4,30.6 39.9,30.2 C43.1,27.8 43.9,27.2 43.6,26 C43.3,25 42.3,24.8 41.6,24.7 C40.7,24.6 39.5,24.4 38.5,23.4 C37.6,22.5 36.5,21.6 35.4,22 C34.3,22.4 34.1,23.5 33.9,24.3 L33.8,24.6 L33.5,24.6 C32.4,24.5 31.6,24.1 30.6,22.1 C30.6,22.1 30.6,22 30.5,22 C34.9,19.2 40,17.5 45.6,17.5 C50.5,17.5 55.2,18.8 59.4,21.2 C59.7,21.4 60.1,21.4 60.4,21.3 C60.7,21.2 61,21 61.2,20.7 C61.4,20.4 61.4,20 61.3,19.7 C61.2,19.4 61,19.1 60.7,18.9 C56.1,16.3 50.9,14.9 45.5,14.9 C28.8,14.8 15,28.5 15,45.4 C15,62.2 28.7,75.9 45.5,75.9 C59.4,75.9 71.6,66.5 75.1,53 C75.4,52.3 74.9,51.6 74.2,51.4 Z M35.6,56.4 C35.7,50.3 38.8,49.9 39.1,49.9 C39.3,49.9 39.5,49.8 39.7,49.8 C39.8,49.8 40.1,49.7 40.6,49.7 C41.7,49.7 43.7,50.2 46.3,52.8 C47.3,53.8 48.6,54.6 49.8,55.2 C51.2,56 52.3,56.6 52.5,57.4 C52.6,57.9 52.4,58.9 51,60.7 C49.2,63.1 47.9,64.1 46.9,64.8 C44.9,66.3 43.7,67.4 42.7,72.6 L42.7,73 C42.3,73 41.9,72.9 41.5,72.8 C41.5,72.6 41.5,72.4 41.3,72.2 C41,71.6 40.4,70.7 40.4,68 C40.4,64.7 39.1,62.7 37.8,60.7 C37,59.5 36.2,58.2 35.6,56.4 L35.6,56.4 L35.6,56.4 Z M28.3,23.5 C30.1,26.9 32,27.2 34.2,27.2 C35.2,27.2 35.9,26.6 36.2,25.5 L36.3,25.1 L36.6,25.4 C37.3,26 38.1,26.5 39.1,26.9 L39.6,27.1 L39.2,27.4 C38.8,27.7 38.5,27.9 38.2,28.1 C36,29.7 35.8,30.6 35.9,32.5 C35.9,32.9 36,33.4 36,34 C36,35.1 34.8,37.3 34.2,37.5 L34.1,37.5 L32,37.5 L27.4,37.5 C25.9,37.7 24.7,38.6 24.2,40.1 C23.9,40.9 23.9,41.7 24.1,42.6 L24.2,43.1 L23.7,42.9 C23.2,42.7 22.8,42.5 22.5,42.3 L22.7,42.1 L22.4,42.1 C22.4,40.2 20,37.6 19,36.5 C20.9,31.3 24.1,26.8 28.3,23.5 Z M17.7,45.4 C17.7,43.4 17.9,41.5 18.3,39.6 C19.1,40.6 19.8,41.6 19.9,42.1 C19.9,43.6 21,46.1 28.5,46.2 L28.7,46.2 L28.8,46.4 C29.8,48.2 31.7,50 33.8,51 L34,51.1 L33.9,51.4 C33.3,52.9 32.9,54.7 32.9,56.8 C32.9,56.9 32.9,57.1 33,57.2 C33.7,59.4 34.7,60.9 35.6,62.3 C36.8,64.2 37.8,65.7 37.8,68.1 C37.8,70 38,71.3 38.4,72.3 C26.5,69.1 17.7,58.2 17.7,45.4 Z" id="Shape" fill="#000053"></path>
                <path d="M78.9,32 C77.3,26.5 73,24.5 69.9,24.5 C66.9,24.5 64.8,25.8 63.6,26.9 L63.4,27.1 L63.2,27 C62,25.9 59.9,24.6 56.9,24.6 C53.8,24.6 49.5,26.6 47.9,32.1 C46.8,35.8 47.7,39.6 50.5,43.4 C54.8,49.2 62.7,53.3 63.4,53.3 L63.4,53.6 L63.4,53.3 C63.7,53.3 64,53.2 64.2,53 C64.3,52.9 64.4,52.9 64.6,52.8 L64.7,52.8 C79.1,44.5 80.4,36.9 78.9,32 Z M63.5,50.2 L63.5,50.2 L63.3,50.2 C49,42.4 49.9,34.9 50.5,32.8 C51.7,28.7 54.6,27.3 56.9,27.3 C60,27.3 61.8,29.3 62.3,30 C62.6,30.3 63,30.6 63.4,30.6 C63.8,30.6 64.2,30.4 64.5,30 C65,29.4 66.7,27.3 69.9,27.3 C72.2,27.3 75.1,28.8 76.3,32.8 C78,38.3 73.4,44.6 63.5,50.2 Z" id="Shape" fill="#000053"></path>
            </g>
        </g>
    </g>
</svg>