<?xml version="1.0" encoding="UTF-8"?>
<svg width="91px" height="94px" viewBox="0 0 91 94" version="1.1" xmlns="http://www.w3.org/2000/svg" xmlns:xlink="http://www.w3.org/1999/xlink">
    <!-- Generator: Sketch 42 (36781) - http://www.bohemiancoding.com/sketch -->
    <title>transparent</title>
    <desc>Created with Sketch.</desc>
    <defs>
        <polygon id="path-1" points="90.1964 94 0.0004 94 0.0004 0.5451 90.1964 0.5451 90.1964 94"></polygon>
    </defs>
    <g id="Page-7" stroke="none" stroke-width="1" fill="none" fill-rule="evenodd">
        <g id="transparent" transform="translate(0.000000, -1.000000)">
            <g id="Group-3" transform="translate(0.000000, 0.454600)">
                <mask id="mask-2" fill="white">
                    <use xlink:href="#path-1"></use>
                </mask>
                <g id="Clip-2"></g>
                <path d="M45.0984,94.0001 C70.0054,94.0001 90.1964,73.0791 90.1964,47.2731 C90.1964,21.4661 70.0054,0.5451 45.0984,0.5451 C20.1914,0.5451 0.0004,21.4661 0.0004,47.2731 C0.0004,73.0791 20.1914,94.0001 45.0984,94.0001" id="Fill-1" fill="#FEFEFE" mask="url(#mask-2)"></path>
            </g>
            <path d="M20.1269,62.6182 L20.3429,28.9012 L70.0699,29.2202 L69.8539,58.7172 L20.1269,62.6182 Z M52.0949,62.6182 L50.3949,64.1072 L39.8019,64.1072 L38.1019,62.6182 L13.8809,62.6182 C14.9939,65.7172 17.9329,67.7842 21.2259,67.7842 L68.9709,67.7842 C72.2639,67.7842 75.2029,65.7172 76.3159,62.6182 L52.0949,62.6182 Z M37.0919,55.7012 L53.1049,55.7012 L53.1049,43.3882 L37.0919,43.3882 L37.0919,55.7012 Z M47.1369,49.0662 C47.1369,50.1922 46.2239,51.1052 45.0989,51.1052 C43.9729,51.1052 43.0609,50.1922 43.0609,49.0662 C43.0609,47.9412 43.9729,47.0292 45.0989,47.0292 C46.2239,47.0292 47.1369,47.9412 47.1369,49.0662 Z M45.0989,51.1052 L45.0989,52.4832 L45.0989,51.1052 Z M50.7309,40.0162 L50.7309,40.0162 C50.7309,37.6982 48.8509,35.8182 46.5319,35.8182 L43.6649,35.8182 C41.3459,35.8182 39.4659,37.6982 39.4659,40.0162 L39.4659,43.3892 L50.7309,40.0162 Z" id="Stroke-4" stroke="#000053" stroke-width="1.974" stroke-linecap="square"></path>
        </g>
    </g>
</svg>