<?xml version="1.0" encoding="UTF-8"?>
<svg width="91px" height="91px" viewBox="0 0 91 91" version="1.1" xmlns="http://www.w3.org/2000/svg" xmlns:xlink="http://www.w3.org/1999/xlink">
    <!-- Generator: Sketch 42 (36781) - http://www.bohemiancoding.com/sketch -->
    <title>consistent</title>
    <desc>Created with Sketch.</desc>
    <defs></defs>
    <g id="Page-7" stroke="none" stroke-width="1" fill="none" fill-rule="evenodd">
        <g id="consistent" fill-rule="nonzero">
            <g id="Laag_1">
                <circle id="Oval" fill="#FEFEFE" cx="45.4" cy="45.4" r="45.4"></circle>
                <g id="Group" transform="translate(15.000000, 7.000000)" fill="#000053">
                    <path d="M22.9,65 L22.9,65 C11,61.6 2.7,50.6 2.7,38.2 C2.7,24.8 12.2,13.3 25.3,10.8 L26.1,10.6 L19,19.8 L21.1,21.4 L30.6,9.1 L17.7,0.5 L16.3,2.7 L25,8.4 L24.3,8.5 C10.2,11.5 0.4,23.7 0.4,38.1 C0.4,51.5 9.4,63.5 22.3,67.2 C22.9,67.4 23.6,67 23.8,66.4 C23.9,66.1 23.9,65.8 23.7,65.5 C23.5,65.3 23.3,65.1 22.9,65 Z" id="Shape"></path>
                    <path d="M37.8,11.7 L37.8,11.7 C49.7,15.1 58,26.1 58,38.5 C58,51.9 48.5,63.4 35.4,65.9 L34.6,66.1 L41.7,56.9 L39.6,55.3 L30,67.6 L43,76.2 L44.4,74 L35.7,68.3 L36.4,68.2 C50.5,65.2 60.3,53 60.3,38.6 C60.3,25.2 51.3,13.2 38.4,9.5 C37.8,9.3 37.1,9.7 36.9,10.3 C36.8,10.6 36.8,10.9 37,11.2 C37.2,11.4 37.4,11.6 37.8,11.7 Z" id="Shape"></path>
                </g>
            </g>
        </g>
    </g>
</svg>