<?xml version="1.0" encoding="UTF-8"?>
<svg width="91px" height="91px" viewBox="0 0 91 91" version="1.1" xmlns="http://www.w3.org/2000/svg" xmlns:xlink="http://www.w3.org/1999/xlink">
    <!-- Generator: Sketch 42 (36781) - http://www.bohemiancoding.com/sketch -->
    <title>secure</title>
    <desc>Created with Sketch.</desc>
    <defs></defs>
    <g id="Page-7" stroke="none" stroke-width="1" fill="none" fill-rule="evenodd">
        <g id="secure" fill-rule="nonzero">
            <g id="Laag_1">
                <circle id="Oval" fill="#FEFEFE" cx="45.4" cy="45.4" r="45.4"></circle>
                <g id="Group" transform="translate(18.000000, 15.000000)" fill="#000053">
                    <path d="M49.6,24.6 L49.5,24.2 L43.2,19.8 C44.5,17.8 45.6,16.2 45.6,16.2 L43.6,14.8 C43.6,14.8 42.5,16.4 41.2,18.4 L38.8,16.7 C40.1,14.8 41.2,13.2 41.2,13.2 L39.2,11.8 C39.2,11.8 38.1,13.4 36.8,15.3 L27.2,8.6 L17.5,15.4 C16.2,13.4 15.1,11.8 15.1,11.8 L13.1,13.2 C13.1,13.2 14.2,14.8 15.5,16.8 L13.1,18.5 C11.8,16.5 10.6,14.8 10.6,14.8 L8.6,16.2 C8.6,16.2 9.8,17.9 11.1,19.9 L4.9,24.3 L5,24.6 C4.8,25.2 1.9,35.7 11,47.9 C8.2,52.7 6.2,56.8 5.2,60.3 C5.1,60.8 5.2,61.3 5.6,61.6 C5.8,61.8 6.1,61.8 6.3,61.8 C6.5,61.8 6.7,61.7 6.9,61.6 C9.7,59.9 12.9,57.4 16.4,53.9 C19.2,56.5 22.5,59.1 26.6,61.6 L27.2,62 L27.8,61.6 C31.8,59.1 35.2,56.6 37.9,54 C41.3,57.4 44.5,59.9 47.3,61.6 C47.5,61.7 47.7,61.8 47.9,61.8 C48.2,61.8 48.4,61.7 48.6,61.6 C49,61.3 49.2,60.8 49,60.3 C48,56.9 46.1,52.7 43.3,48 C52.7,35.8 49.8,25.2 49.6,24.6 Z M8.7,57.6 C9.6,55.3 11,52.7 12.6,49.9 C13.3,50.7 14,51.5 14.8,52.3 C12.6,54.4 10.6,56.2 8.7,57.6 Z M45.7,57.7 C43.8,56.3 41.8,54.5 39.7,52.5 C40.5,51.7 41.2,50.9 41.9,50.1 C43.5,52.8 44.8,55.4 45.7,57.7 Z M27.3,59.2 C4.1,44.6 6.6,28.4 7.2,25.6 L27.3,11.5 L27.3,11.5 L47.4,25.6 C48,28.3 50.4,44.7 27.3,59.2 Z" id="Shape"></path>
                    <path d="M38.9,31.5 L30.9,31.5 L28.4,23.9 C28.1,22.9 26.4,22.9 26.1,23.9 L23.6,31.5 L15.6,31.5 C15.1,31.5 14.6,31.8 14.5,32.3 C14.3,32.8 14.5,33.3 14.9,33.6 L21.4,38.3 L19,46 C18.8,46.5 19,47 19.4,47.3 C19.6,47.5 19.9,47.5 20.1,47.5 C20.3,47.5 20.6,47.4 20.8,47.3 L27.3,42.6 L33.8,47.3 C34.2,47.6 34.8,47.6 35.2,47.3 C35.6,47 35.8,46.5 35.6,46 L33.1,38.4 L39.6,33.7 C40,33.4 40.2,32.9 40,32.4 C39.9,31.9 39.4,31.5 38.9,31.5 Z M31,37 C30.6,37.3 30.4,37.8 30.6,38.3 L32.2,43.2 L28,40.2 C27.8,40 27.6,40 27.3,40 C27.1,40 26.8,40.1 26.6,40.2 L22.4,43.2 L24,38.3 C24.2,37.8 24,37.3 23.6,37 L19.4,34 L24.6,34 C25.1,34 25.6,33.7 25.7,33.2 L27.3,28.3 L28.9,33.2 C29.1,33.7 29.5,34 30,34 L35.2,34 L31,37 Z" id="Shape"></path>
                    <path d="M3.9,16.6 L17,7.6 L18.9,10.3 L20.9,8.9 L17.7,4.2 L12.7,7.6 C10.9,5.1 7.8,1.3 7.7,1.1 L7,0.3 L0.6,4.6 L1.4,5.6 C1.4,5.6 4.6,9.5 6.3,12 L0.6,16 L3.8,20.7 L5.8,19.3 L3.9,16.6 Z M4,5.1 L6.5,3.4 C7.5,4.7 9.5,7.2 10.7,8.9 L8.3,10.6 C7,8.9 5.1,6.5 4,5.1 Z" id="Shape"></path>
                    <path d="M53.2,5.7 L54,4.7 L47.6,0.4 L46.9,1.2 C46.8,1.4 43.7,5.2 41.9,7.7 L37,4.3 L33.8,9 L35.8,10.4 L37.7,7.7 L50.8,16.7 L48.9,19.4 L50.9,20.8 L54.1,16.1 L48.4,12.2 C50,9.6 53.1,5.7 53.2,5.7 Z M48,3.5 L50.5,5.2 C49.4,6.6 47.5,9 46.3,10.7 L43.8,9 C45.1,7.3 47,4.8 48,3.5 Z" id="Shape"></path>
                </g>
            </g>
        </g>
    </g>
</svg>