<?xml version="1.0" encoding="UTF-8"?>
<svg width="256px" height="203px" viewBox="0 0 256 203" version="1.1" xmlns="http://www.w3.org/2000/svg" xmlns:xlink="http://www.w3.org/1999/xlink">
    <!-- Generator: Sketch 42 (36781) - http://www.bohemiancoding.com/sketch -->
    <title>logo_svg</title>
    <desc>Created with Sketch.</desc>
    <defs></defs>
    <g id="Branding" stroke="none" stroke-width="1" fill="none" fill-rule="evenodd">
        <g id="logo_svg" fill-rule="nonzero" fill="#000000">
            <g id="LOGO_EOS_DEF_ZW">
                <g id="Laag_1">
                    <g id="Group" transform="translate(131.413333, 110.933333)">
                        <path d="M10.4106667,23.8933333 L9.216,17.7493333 L3.92533333,17.7493333 L2.73066667,23.8933333 L0.682666667,23.8933333 L5.80266667,1.19466667 L7.50933333,1.19466667 L12.4586667,23.8933333 L10.4106667,23.8933333 Z M6.48533333,4.608 L4.26666667,16.0426667 L8.87466667,16.0426667 L6.48533333,4.608 Z" id="Shape"></path>
                        <polygon id="Shape" points="26.624 23.8933333 26.624 5.632 22.528 17.5786667 21.1626667 17.5786667 17.0666667 5.97333333 17.0666667 23.8933333 15.1893333 23.8933333 15.1893333 1.19466667 17.0666667 1.19466667 21.8453333 14.5066667 26.624 1.19466667 28.5013333 1.19466667 28.5013333 23.8933333"></polygon>
                        <path d="M40.96,22.8693333 C40.2773333,23.552 39.0826667,24.064 37.376,24.064 C35.84,24.064 34.6453333,23.7226667 33.792,22.8693333 C32.768,21.8453333 32.4266667,20.6506667 32.4266667,18.2613333 L34.304,18.2613333 C34.304,19.968 34.4746667,20.992 35.1573333,21.6746667 C35.6693333,22.1866667 36.352,22.3573333 37.376,22.3573333 C38.4,22.3573333 39.0826667,22.016 39.5946667,21.6746667 C40.2773333,20.8213333 40.448,19.968 40.448,18.0906667 C40.448,15.1893333 39.936,14.1653333 38.0586667,13.4826667 L35.6693333,12.4586667 C33.28,11.4346667 32.5973333,10.24 32.5973333,6.82666667 C32.5973333,4.94933333 33.1093333,3.24266667 34.1333333,2.38933333 C34.9866667,1.536 36.0106667,1.19466667 37.376,1.19466667 C38.912,1.19466667 39.936,1.70666667 40.7893333,2.38933333 C41.984,3.584 42.1546667,4.77866667 42.1546667,6.82666667 L40.2773333,6.82666667 C40.2773333,5.46133333 40.1066667,4.43733333 39.424,3.75466667 C38.912,3.24266667 38.2293333,2.90133333 37.376,2.90133333 C36.5226667,2.90133333 35.84,3.24266667 35.328,3.584 C34.6453333,4.26666667 34.304,5.46133333 34.304,6.82666667 C34.304,9.38666667 34.6453333,10.24 36.6933333,11.0933333 L39.0826667,12.1173333 C41.472,13.1413333 41.984,14.848 41.984,18.0906667 C42.3253333,20.48 41.984,21.8453333 40.96,22.8693333 Z" id="Shape"></path>
                        <polygon id="Shape" points="50.5173333 2.90133333 50.5173333 23.8933333 48.64 23.8933333 48.64 2.90133333 44.8853333 2.90133333 44.8853333 1.19466667 54.272 1.19466667 54.272 2.90133333"></polygon>
                        <polygon id="Shape" points="57.6853333 23.8933333 57.6853333 1.19466667 65.536 1.19466667 65.536 2.90133333 59.5626667 2.90133333 59.5626667 11.776 64.6826667 11.776 64.6826667 13.4826667 59.5626667 13.4826667 59.5626667 22.3573333 65.536 22.3573333 65.536 24.064 57.6853333 24.064"></polygon>
                        <path d="M77.824,23.8933333 L74.5813333,13.6533333 L71.68,13.6533333 L71.68,23.8933333 L69.8026667,23.8933333 L69.8026667,1.19466667 L74.24,1.19466667 C76.9706667,1.19466667 79.1893333,2.21866667 79.1893333,7.50933333 C79.1893333,11.0933333 78.336,12.6293333 76.4586667,13.4826667 L80.0426667,24.064 L77.824,24.064 L77.824,23.8933333 Z M74.24,2.90133333 L71.68,2.90133333 L71.68,12.1173333 L74.24,12.1173333 C76.4586667,12.1173333 77.1413333,10.4106667 77.1413333,7.50933333 C77.1413333,4.608 76.6293333,2.90133333 74.24,2.90133333 Z" id="Shape"></path>
                        <path d="M91.9893333,22.6986667 C91.3066667,23.552 90.112,24.064 88.576,24.064 L83.968,24.064 L83.968,1.19466667 L88.576,1.19466667 C90.112,1.19466667 91.136,1.70666667 91.9893333,2.56 C93.3546667,4.096 93.5253333,5.80266667 93.5253333,12.6293333 C93.696,19.456 93.5253333,21.1626667 91.9893333,22.6986667 Z M90.624,3.75466667 C90.112,3.24266667 89.4293333,2.90133333 88.576,2.90133333 L85.8453333,2.90133333 L85.8453333,22.1866667 L88.576,22.1866667 C89.4293333,22.1866667 90.2826667,21.8453333 90.624,21.3333333 C91.648,20.3093333 91.8186667,18.944 91.8186667,12.4586667 C91.8186667,5.97333333 91.648,4.77866667 90.624,3.75466667 Z" id="Shape"></path>
                        <path d="M105.984,23.8933333 L104.789333,17.7493333 L99.4986667,17.7493333 L98.304,23.8933333 L96.256,23.8933333 L101.376,1.19466667 L103.082667,1.19466667 L108.032,23.8933333 L105.984,23.8933333 Z M102.058667,4.608 L99.84,16.0426667 L104.448,16.0426667 L102.058667,4.608 Z" id="Shape"></path>
                        <polygon id="Shape" points="122.197333 23.8933333 122.197333 5.632 118.101333 17.5786667 116.736 17.5786667 112.64 5.97333333 112.64 23.8933333 110.762667 23.8933333 110.762667 1.19466667 112.64 1.19466667 117.418667 14.5066667 122.197333 1.19466667 124.074667 1.19466667 124.074667 23.8933333"></polygon>
                    </g>
                    <g id="Group" transform="translate(131.413333, 52.906667)">
                        <polygon id="Shape" points="0.341333333 52.3946667 0.341333333 1.87733333 21.8453333 1.87733333 21.8453333 8.704 7.50933333 8.704 7.50933333 23.552 19.968 23.552 19.968 30.3786667 7.50933333 30.3786667 7.50933333 45.2266667 21.8453333 45.2266667 21.8453333 52.3946667"></polygon>
                        <path d="M26.112,13.824 C26.112,11.776 26.4533333,10.0693333 27.136,8.36266667 C27.8186667,6.82666667 28.8426667,5.46133333 30.0373333,4.43733333 C31.232,3.41333333 32.4266667,2.73066667 33.9626667,2.21866667 C35.328,1.70666667 36.864,1.36533333 38.4,1.36533333 C39.936,1.36533333 41.3013333,1.70666667 42.8373333,2.21866667 C44.2026667,2.73066667 45.568,3.41333333 46.7626667,4.43733333 C47.9573333,5.46133333 48.8106667,6.82666667 49.4933333,8.36266667 C50.176,9.89866667 50.5173333,11.776 50.5173333,13.824 L50.5173333,40.448 C50.5173333,42.496 50.176,44.3733333 49.4933333,45.9093333 C48.8106667,47.4453333 47.7866667,48.64 46.7626667,49.664 C45.568,50.688 44.2026667,51.5413333 42.8373333,52.0533333 C41.472,52.5653333 39.936,52.9066667 38.4,52.9066667 C36.864,52.9066667 35.4986667,52.5653333 33.9626667,52.0533333 C32.5973333,51.5413333 31.232,50.688 30.0373333,49.664 C28.8426667,48.64 27.9893333,47.4453333 27.136,45.9093333 C26.4533333,44.3733333 26.112,42.496 26.112,40.448 L26.112,13.824 L26.112,13.824 Z M33.28,40.448 C33.28,42.1546667 33.792,43.52 34.816,44.3733333 C35.84,45.2266667 36.864,45.568 38.2293333,45.568 C39.5946667,45.568 40.6186667,45.2266667 41.6426667,44.3733333 C42.6666667,43.52 43.1786667,42.3253333 43.1786667,40.448 L43.1786667,13.824 C43.1786667,12.1173333 42.6666667,10.752 41.6426667,9.89866667 C40.6186667,9.04533333 39.5946667,8.704 38.2293333,8.704 C36.864,8.704 35.84,9.04533333 34.816,9.89866667 C33.792,10.752 33.28,11.9466667 33.28,13.824 L33.28,40.448 Z" id="Shape"></path>
                        <path d="M80.2133333,16.384 L73.0453333,16.384 L73.0453333,14.6773333 C73.0453333,12.9706667 72.704,11.6053333 71.8506667,10.4106667 C70.9973333,9.216 69.8026667,8.53333333 67.9253333,8.53333333 C66.9013333,8.53333333 66.048,8.704 65.536,9.04533333 C65.024,9.38666667 64.3413333,9.89866667 64,10.4106667 C63.6586667,11.0933333 63.3173333,11.776 63.1466667,12.4586667 C62.976,13.1413333 62.976,13.9946667 62.976,14.848 C62.976,15.872 62.976,16.7253333 63.1466667,17.408 C63.1466667,18.0906667 63.3173333,18.6026667 63.6586667,19.1146667 C64,19.6266667 64.3413333,20.1386667 64.8533333,20.48 C65.3653333,20.8213333 66.2186667,21.1626667 67.072,21.6746667 L72.5333333,23.8933333 C74.0693333,24.576 75.4346667,25.2586667 76.4586667,26.112 C77.4826667,26.9653333 78.1653333,27.8186667 78.848,29.0133333 C79.36,30.208 79.7013333,31.4026667 79.872,32.9386667 C80.0426667,34.4746667 80.2133333,36.0106667 80.2133333,37.888 C80.2133333,39.936 80.0426667,41.984 79.5306667,43.8613333 C79.1893333,45.7386667 78.336,47.2746667 77.4826667,48.4693333 C76.4586667,49.8346667 75.264,50.8586667 73.5573333,51.5413333 C72.0213333,52.224 69.9733333,52.736 67.584,52.736 C65.8773333,52.736 64.1706667,52.3946667 62.6346667,51.8826667 C61.0986667,51.3706667 59.904,50.3466667 58.7093333,49.3226667 C57.6853333,48.2986667 56.832,46.9333333 56.1493333,45.568 C55.4666667,44.2026667 55.1253333,42.496 55.1253333,40.7893333 L55.1253333,38.0586667 L62.2933333,38.0586667 L62.2933333,40.2773333 C62.2933333,41.6426667 62.6346667,42.8373333 63.488,43.8613333 C64.3413333,44.8853333 65.536,45.3973333 67.4133333,45.3973333 C68.608,45.3973333 69.632,45.2266667 70.3146667,44.8853333 C70.9973333,44.544 71.5093333,44.032 71.8506667,43.3493333 C72.192,42.6666667 72.5333333,41.8133333 72.5333333,40.96 C72.5333333,40.1066667 72.704,39.0826667 72.704,37.888 C72.704,36.5226667 72.704,35.4986667 72.5333333,34.6453333 C72.3626667,33.792 72.192,33.1093333 72.0213333,32.5973333 C71.68,32.0853333 71.168,31.5733333 70.656,31.4026667 C70.144,31.0613333 69.4613333,30.72 68.4373333,30.3786667 L63.3173333,28.3306667 C60.2453333,27.136 58.0266667,25.4293333 57.0026667,23.2106667 C55.9786667,21.1626667 55.4666667,18.432 55.4666667,15.36 C55.4666667,13.4826667 55.808,11.6053333 56.32,9.89866667 C56.832,8.192 57.6853333,6.656 58.7093333,5.46133333 C59.7333333,4.26666667 60.928,3.24266667 62.464,2.56 C64,1.87733333 65.8773333,1.536 67.9253333,1.536 C69.8026667,1.536 71.3386667,1.87733333 72.8746667,2.56 C74.4106667,3.24266667 75.6053333,4.096 76.8,5.12 C79.0186667,7.33866667 80.0426667,10.0693333 80.0426667,12.9706667 L80.0426667,16.384 L80.2133333,16.384 Z" id="Shape"></path>
                    </g>
                    <g id="Group" transform="translate(131.413333, 151.893333)">
                        <polygon id="Shape" points="9.55733333 13.1413333 8.02133333 13.1413333 6.144 3.24266667 4.26666667 13.1413333 2.73066667 13.1413333 0.512 0.853333333 2.21866667 0.853333333 3.41333333 10.752 5.29066667 0.853333333 6.99733333 0.853333333 8.87466667 10.752 10.0693333 0.853333333 11.776 0.853333333"></polygon>
                        <path d="M16.2133333,13.1413333 L16.2133333,6.48533333 C16.2133333,5.632 15.7013333,5.29066667 15.1893333,5.29066667 C14.6773333,5.29066667 14.1653333,5.632 14.1653333,6.48533333 L14.1653333,13.1413333 L12.8,13.1413333 L12.8,0.853333333 L14.1653333,0.853333333 L14.1653333,4.94933333 C14.336,4.77866667 14.5066667,4.608 14.6773333,4.43733333 C15.0186667,4.26666667 15.36,4.096 15.7013333,4.096 C16.384,4.096 16.896,4.26666667 17.2373333,4.77866667 C17.5786667,5.12 17.7493333,5.632 17.7493333,6.656 L17.7493333,13.312 L16.2133333,13.312 L16.2133333,13.1413333 Z" id="Shape"></path>
                        <path d="M20.6506667,9.04533333 C20.6506667,10.4106667 20.6506667,11.264 20.992,11.776 C21.1626667,11.9466667 21.3333333,12.1173333 21.8453333,12.1173333 C22.1866667,12.1173333 22.3573333,11.9466667 22.6986667,11.776 C22.8693333,11.6053333 23.04,11.0933333 23.04,10.752 L24.4053333,10.752 C24.4053333,11.6053333 24.2346667,12.288 23.7226667,12.8 C23.2106667,13.312 22.6986667,13.4826667 22.016,13.4826667 C21.1626667,13.4826667 20.6506667,13.312 20.3093333,12.8 C19.6266667,12.1173333 19.456,10.752 19.456,8.87466667 C19.456,6.99733333 19.6266667,5.632 20.3093333,4.94933333 C20.8213333,4.43733333 21.3333333,4.26666667 22.016,4.26666667 C22.6986667,4.26666667 23.3813333,4.43733333 23.7226667,4.94933333 C24.4053333,5.80266667 24.576,7.33866667 24.576,9.216 L20.6506667,9.216 L20.6506667,9.04533333 Z M22.6986667,5.632 C22.528,5.46133333 22.1866667,5.29066667 21.8453333,5.29066667 C21.504,5.29066667 21.1626667,5.46133333 20.992,5.632 C20.6506667,5.97333333 20.6506667,6.656 20.6506667,7.85066667 L22.8693333,7.85066667 C23.04,6.82666667 22.8693333,5.97333333 22.6986667,5.632 Z" id="Shape"></path>
                        <path d="M29.184,5.46133333 C28.16,5.46133333 27.4773333,6.144 27.4773333,7.168 L27.4773333,13.312 L26.112,13.312 L26.112,4.26666667 L27.4773333,4.26666667 L27.4773333,5.29066667 C27.648,5.12 27.8186667,4.77866667 28.16,4.608 C28.5013333,4.26666667 29.0133333,4.096 29.696,4.096 L29.696,5.46133333 L29.184,5.46133333 L29.184,5.46133333 Z" id="Shape"></path>
                        <path d="M31.744,9.04533333 C31.744,10.4106667 31.744,11.264 32.0853333,11.776 C32.256,11.9466667 32.4266667,12.1173333 32.9386667,12.1173333 C33.28,12.1173333 33.4506667,11.9466667 33.792,11.776 C33.9626667,11.6053333 34.1333333,11.0933333 34.1333333,10.752 L35.4986667,10.752 C35.4986667,11.6053333 35.328,12.288 34.816,12.8 C34.304,13.312 33.792,13.4826667 33.1093333,13.4826667 C32.256,13.4826667 31.744,13.312 31.4026667,12.8 C30.72,12.1173333 30.5493333,10.752 30.5493333,8.87466667 C30.5493333,6.99733333 30.72,5.632 31.4026667,4.94933333 C31.9146667,4.43733333 32.4266667,4.26666667 33.1093333,4.26666667 C33.792,4.26666667 34.4746667,4.43733333 34.816,4.94933333 C35.4986667,5.80266667 35.6693333,7.33866667 35.6693333,9.216 L31.744,9.216 L31.744,9.04533333 Z M33.792,5.632 C33.6213333,5.46133333 33.28,5.29066667 32.9386667,5.29066667 C32.5973333,5.29066667 32.256,5.46133333 32.0853333,5.632 C31.744,5.97333333 31.744,6.656 31.744,7.85066667 L33.9626667,7.85066667 C34.1333333,6.82666667 33.9626667,5.97333333 33.792,5.632 Z" id="Shape"></path>
                        <path d="M41.472,12.6293333 C40.96,12.288 40.6186667,11.6053333 40.6186667,10.5813333 L40.6186667,5.29066667 L39.5946667,5.29066667 L39.5946667,4.26666667 L40.6186667,4.26666667 L40.6186667,1.70666667 L41.984,1.70666667 L41.984,4.096 L43.3493333,4.096 L43.3493333,5.12 L41.984,5.12 L41.984,10.4106667 C41.984,11.4346667 42.496,11.776 43.3493333,11.776 L43.3493333,12.9706667 C42.6666667,13.1413333 41.984,13.1413333 41.472,12.6293333 Z" id="Shape"></path>
                        <path d="M47.9573333,5.46133333 C46.9333333,5.46133333 46.2506667,6.144 46.2506667,7.168 L46.2506667,13.312 L44.8853333,13.312 L44.8853333,4.26666667 L46.2506667,4.26666667 L46.2506667,5.29066667 C46.4213333,5.12 46.592,4.77866667 46.9333333,4.608 C47.2746667,4.26666667 47.7866667,4.096 48.4693333,4.096 L48.4693333,5.46133333 L47.9573333,5.46133333 L47.9573333,5.46133333 Z" id="Shape"></path>
                        <path d="M53.0773333,13.1413333 L53.0773333,12.4586667 C52.9066667,12.6293333 52.736,12.9706667 52.5653333,12.9706667 C52.224,13.1413333 51.8826667,13.312 51.5413333,13.312 C50.8586667,13.312 50.3466667,13.1413333 50.0053333,12.6293333 C49.664,12.288 49.4933333,11.776 49.4933333,10.752 L49.4933333,4.096 L50.8586667,4.096 L50.8586667,10.752 C50.8586667,11.6053333 51.3706667,11.9466667 51.8826667,11.9466667 C52.3946667,11.9466667 52.9066667,11.6053333 52.9066667,10.752 L52.9066667,4.096 L54.272,4.096 L54.272,13.1413333 L53.0773333,13.1413333 L53.0773333,13.1413333 Z" id="Shape"></path>
                        <path d="M60.416,12.6293333 C59.904,13.1413333 59.2213333,13.312 58.5386667,13.312 C57.856,13.312 57.1733333,13.1413333 56.6613333,12.6293333 C56.1493333,12.1173333 55.9786667,11.4346667 55.9786667,10.5813333 L57.344,10.5813333 C57.344,11.0933333 57.5146667,11.4346667 57.6853333,11.6053333 C57.856,11.776 58.1973333,11.9466667 58.5386667,11.9466667 C58.88,11.9466667 59.2213333,11.776 59.392,11.6053333 C59.5626667,11.4346667 59.7333333,11.0933333 59.7333333,10.752 C59.7333333,10.4106667 59.7333333,10.24 59.5626667,9.89866667 C59.392,9.55733333 59.0506667,9.38666667 58.7093333,9.216 L57.5146667,8.704 C57.0026667,8.36266667 56.4906667,8.02133333 56.32,7.68 C56.1493333,7.33866667 55.9786667,6.99733333 55.9786667,6.48533333 C55.9786667,5.632 56.32,5.12 56.6613333,4.608 C57.1733333,4.096 57.6853333,3.92533333 58.368,3.92533333 C59.0506667,3.92533333 59.7333333,4.096 60.0746667,4.608 C60.5866667,5.12 60.7573333,5.632 60.7573333,6.656 L59.7333333,6.656 C59.7333333,6.144 59.5626667,5.80266667 59.392,5.632 C59.2213333,5.46133333 58.88,5.29066667 58.7093333,5.29066667 C58.368,5.29066667 58.1973333,5.46133333 57.856,5.632 C57.6853333,5.80266667 57.5146667,6.144 57.5146667,6.48533333 C57.5146667,6.82666667 57.5146667,6.99733333 57.6853333,7.168 C57.856,7.33866667 58.0266667,7.50933333 58.368,7.68 L59.5626667,8.192 C60.2453333,8.53333333 60.5866667,8.87466667 60.7573333,9.216 C60.928,9.55733333 61.0986667,10.0693333 61.0986667,10.5813333 C61.0986667,11.6053333 60.928,12.1173333 60.416,12.6293333 Z" id="Shape"></path>
                        <path d="M63.8293333,12.6293333 C63.3173333,12.288 62.976,11.6053333 62.976,10.5813333 L62.976,5.29066667 L61.952,5.29066667 L61.952,4.26666667 L62.976,4.26666667 L62.976,1.70666667 L64.3413333,1.70666667 L64.3413333,4.096 L65.7066667,4.096 L65.7066667,5.12 L64.3413333,5.12 L64.3413333,10.4106667 C64.3413333,11.4346667 64.8533333,11.776 65.7066667,11.776 L65.7066667,12.9706667 C65.024,13.1413333 64.3413333,13.1413333 63.8293333,12.6293333 Z" id="Shape"></path>
                        <path d="M8.53333333,30.5493333 L8.53333333,23.8933333 C8.53333333,23.04 8.02133333,22.6986667 7.50933333,22.6986667 C6.99733333,22.6986667 6.48533333,23.04 6.48533333,23.8933333 L6.48533333,30.5493333 L5.12,30.5493333 L5.12,23.8933333 C5.12,23.04 4.608,22.6986667 4.096,22.6986667 C3.584,22.6986667 3.072,23.04 3.072,23.8933333 L3.072,30.5493333 L1.70666667,30.5493333 L1.70666667,21.504 L3.072,21.504 L3.072,22.1866667 C3.24266667,22.016 3.41333333,21.6746667 3.584,21.6746667 C3.92533333,21.504 4.26666667,21.3333333 4.608,21.3333333 C5.29066667,21.3333333 5.97333333,21.6746667 6.31466667,22.1866667 C6.48533333,22.016 6.82666667,21.6746667 6.99733333,21.504 C7.33866667,21.3333333 7.68,21.1626667 8.02133333,21.1626667 C8.87466667,21.1626667 9.216,21.3333333 9.55733333,21.8453333 C9.89866667,22.1866667 10.0693333,22.6986667 10.0693333,23.7226667 L10.0693333,30.3786667 L8.53333333,30.3786667 L8.53333333,30.5493333 Z" id="Shape"></path>
                        <path d="M12.9706667,26.4533333 C12.9706667,27.8186667 12.9706667,28.672 13.312,29.184 C13.4826667,29.3546667 13.6533333,29.5253333 14.1653333,29.5253333 C14.5066667,29.5253333 14.6773333,29.3546667 15.0186667,29.184 C15.1893333,29.0133333 15.36,28.5013333 15.36,28.16 L16.7253333,28.16 C16.7253333,29.0133333 16.5546667,29.696 16.0426667,30.208 C15.5306667,30.72 15.0186667,30.8906667 14.336,30.8906667 C13.4826667,30.8906667 12.9706667,30.72 12.6293333,30.208 C11.9466667,29.5253333 11.776,28.16 11.776,26.2826667 C11.776,24.4053333 11.9466667,23.04 12.6293333,22.3573333 C13.1413333,21.8453333 13.6533333,21.6746667 14.336,21.6746667 C15.0186667,21.6746667 15.7013333,21.8453333 16.0426667,22.3573333 C16.7253333,23.2106667 16.896,24.7466667 16.896,26.624 L12.9706667,26.624 L12.9706667,26.4533333 Z M14.848,23.04 C14.6773333,22.8693333 14.336,22.6986667 13.9946667,22.6986667 C13.6533333,22.6986667 13.312,22.8693333 13.1413333,23.04 C12.8,23.3813333 12.8,24.064 12.8,25.2586667 L15.0186667,25.2586667 C15.1893333,24.064 15.1893333,23.3813333 14.848,23.04 Z" id="Shape"></path>
                        <path d="M19.456,26.4533333 C19.456,27.8186667 19.456,28.672 19.7973333,29.184 C19.968,29.3546667 20.1386667,29.5253333 20.6506667,29.5253333 C20.992,29.5253333 21.1626667,29.3546667 21.504,29.184 C21.6746667,29.0133333 21.8453333,28.5013333 21.8453333,28.16 L23.2106667,28.16 C23.2106667,29.0133333 23.04,29.696 22.528,30.208 C22.016,30.72 21.504,30.8906667 20.8213333,30.8906667 C19.968,30.8906667 19.456,30.72 19.1146667,30.208 C18.432,29.5253333 18.2613333,28.16 18.2613333,26.2826667 C18.2613333,24.4053333 18.432,23.04 19.1146667,22.3573333 C19.6266667,21.8453333 20.1386667,21.6746667 20.8213333,21.6746667 C21.504,21.6746667 22.1866667,21.8453333 22.528,22.3573333 C23.2106667,23.2106667 23.3813333,24.7466667 23.3813333,26.624 L19.456,26.624 L19.456,26.4533333 Z M21.3333333,23.04 C21.1626667,22.8693333 20.8213333,22.6986667 20.48,22.6986667 C20.1386667,22.6986667 19.7973333,22.8693333 19.6266667,23.04 C19.2853333,23.3813333 19.2853333,24.064 19.2853333,25.2586667 L21.504,25.2586667 C21.6746667,24.064 21.6746667,23.3813333 21.3333333,23.04 Z" id="Shape"></path>
                        <path d="M25.9413333,30.0373333 C25.4293333,29.696 25.088,29.0133333 25.088,27.9893333 L25.088,22.6986667 L24.064,22.6986667 L24.064,21.6746667 L25.088,21.6746667 L25.088,19.2853333 L26.4533333,19.2853333 L26.4533333,21.6746667 L27.8186667,21.6746667 L27.8186667,22.6986667 L26.4533333,22.6986667 L26.4533333,27.9893333 C26.4533333,29.0133333 26.9653333,29.3546667 27.8186667,29.3546667 L27.8186667,30.5493333 C27.136,30.5493333 26.4533333,30.5493333 25.9413333,30.0373333 Z" id="Shape"></path>
                        <path d="M33.28,30.0373333 C32.768,30.5493333 32.0853333,30.72 31.4026667,30.72 C30.72,30.72 30.0373333,30.5493333 29.5253333,30.0373333 C29.0133333,29.5253333 28.8426667,28.8426667 28.8426667,27.9893333 L30.208,27.9893333 C30.208,28.5013333 30.3786667,28.8426667 30.5493333,29.0133333 C30.72,29.184 31.0613333,29.3546667 31.4026667,29.3546667 C31.744,29.3546667 32.0853333,29.184 32.256,29.0133333 C32.4266667,28.8426667 32.5973333,28.5013333 32.5973333,28.16 C32.5973333,27.8186667 32.5973333,27.648 32.4266667,27.3066667 C32.256,26.9653333 31.9146667,26.7946667 31.5733333,26.624 L30.3786667,26.112 C29.8666667,25.7706667 29.3546667,25.4293333 29.184,25.088 C29.0133333,24.7466667 28.8426667,24.4053333 28.8426667,23.8933333 C28.8426667,23.04 29.184,22.528 29.5253333,22.016 C30.0373333,21.504 30.5493333,21.3333333 31.232,21.3333333 C31.9146667,21.3333333 32.5973333,21.504 32.9386667,22.016 C33.4506667,22.528 33.6213333,23.04 33.6213333,24.064 L32.4266667,24.064 C32.4266667,23.552 32.256,23.2106667 32.0853333,23.04 C31.9146667,22.8693333 31.5733333,22.6986667 31.4026667,22.6986667 C31.0613333,22.6986667 30.8906667,22.8693333 30.5493333,23.04 C30.3786667,23.2106667 30.208,23.552 30.208,23.8933333 C30.208,24.2346667 30.208,24.4053333 30.3786667,24.576 C30.5493333,24.7466667 30.72,24.9173333 31.0613333,25.088 L32.256,25.6 C32.9386667,25.9413333 33.28,26.2826667 33.4506667,26.624 C33.6213333,26.9653333 33.792,27.4773333 33.792,27.9893333 C33.9626667,28.8426667 33.6213333,29.5253333 33.28,30.0373333 Z" id="Shape"></path>
                        <path d="M3.75466667,49.3226667 C3.41333333,50.8586667 2.21866667,51.2 0.682666667,51.2 L0.682666667,50.0053333 C1.536,50.0053333 2.048,49.8346667 2.21866667,48.9813333 L2.56,47.9573333 L0.341333333,38.912 L1.87733333,38.912 L3.24266667,45.7386667 L4.608,38.912 L6.144,38.912 L3.75466667,49.3226667 Z" id="Shape"></path>
                        <path d="M11.6053333,47.2746667 C11.0933333,47.9573333 10.4106667,48.128 9.728,48.128 C9.04533333,48.128 8.36266667,47.9573333 7.85066667,47.2746667 C7.33866667,46.592 7.168,45.2266667 7.168,43.52 C7.168,41.6426667 7.33866667,40.448 7.85066667,39.7653333 C8.36266667,39.0826667 8.87466667,38.912 9.728,38.912 C10.5813333,38.912 11.264,39.0826667 11.6053333,39.7653333 C12.1173333,40.448 12.288,41.8133333 12.288,43.52 C12.288,45.2266667 12.1173333,46.592 11.6053333,47.2746667 Z M10.5813333,40.448 C10.4106667,40.2773333 10.0693333,40.1066667 9.728,40.1066667 C9.38666667,40.1066667 9.04533333,40.2773333 8.87466667,40.448 C8.53333333,40.96 8.53333333,41.8133333 8.53333333,43.52 C8.53333333,45.2266667 8.53333333,46.08 8.87466667,46.592 C9.04533333,46.7626667 9.38666667,46.9333333 9.728,46.9333333 C10.0693333,46.9333333 10.4106667,46.7626667 10.5813333,46.592 C10.9226667,46.08 10.9226667,45.2266667 10.9226667,43.52 C10.9226667,41.8133333 10.752,40.96 10.5813333,40.448 Z" id="Shape"></path>
                        <path d="M17.408,47.9573333 L17.408,47.2746667 C17.2373333,47.4453333 17.0666667,47.7866667 16.896,47.7866667 C16.5546667,47.9573333 16.2133333,48.128 15.872,48.128 C15.1893333,48.128 14.6773333,47.9573333 14.336,47.4453333 C13.9946667,47.104 13.824,46.592 13.824,45.568 L13.824,38.912 L15.1893333,38.912 L15.1893333,45.568 C15.1893333,46.4213333 15.7013333,46.7626667 16.2133333,46.7626667 C16.7253333,46.7626667 17.2373333,46.4213333 17.2373333,45.568 L17.2373333,38.912 L18.6026667,38.912 L18.6026667,47.9573333 L17.408,47.9573333 Z" id="Shape"></path>
                        <path d="M23.8933333,40.1066667 C22.8693333,40.1066667 22.1866667,40.7893333 22.1866667,41.8133333 L22.1866667,47.9573333 L20.8213333,47.9573333 L20.8213333,38.912 L22.1866667,38.912 L22.1866667,39.936 C22.3573333,39.7653333 22.528,39.424 22.8693333,39.2533333 C23.2106667,38.912 23.7226667,38.7413333 24.4053333,38.7413333 L24.4053333,40.1066667 L23.8933333,40.1066667 L23.8933333,40.1066667 Z" id="Shape"></path>
                        <path d="M30.5493333,40.1066667 L30.5493333,47.9573333 L29.184,47.9573333 L29.184,40.1066667 L28.16,40.1066667 L28.16,39.0826667 L29.184,39.0826667 L29.184,38.2293333 C29.184,37.376 29.5253333,36.6933333 30.0373333,36.1813333 C30.5493333,35.6693333 31.232,35.6693333 32.0853333,35.6693333 L32.0853333,36.864 C31.232,36.864 30.72,37.376 30.72,38.2293333 L30.72,39.0826667 L32.0853333,39.0826667 L32.0853333,40.1066667 L30.5493333,40.1066667 Z" id="Shape"></path>
                        <path d="M36.6933333,47.9573333 L36.6933333,47.2746667 C36.5226667,47.4453333 36.352,47.7866667 36.1813333,47.7866667 C35.84,47.9573333 35.4986667,48.128 35.1573333,48.128 C34.4746667,48.128 33.9626667,47.9573333 33.6213333,47.4453333 C33.28,47.104 33.1093333,46.592 33.1093333,45.568 L33.1093333,38.912 L34.4746667,38.912 L34.4746667,45.568 C34.4746667,46.4213333 34.9866667,46.7626667 35.4986667,46.7626667 C36.0106667,46.7626667 36.5226667,46.4213333 36.5226667,45.568 L36.5226667,38.912 L37.888,38.912 L37.888,47.9573333 L36.6933333,47.9573333 Z" id="Shape"></path>
                        <path d="M41.1306667,47.4453333 C40.6186667,47.104 40.2773333,46.4213333 40.2773333,45.3973333 L40.2773333,40.1066667 L39.2533333,40.1066667 L39.2533333,39.0826667 L40.2773333,39.0826667 L40.2773333,36.6933333 L41.6426667,36.6933333 L41.6426667,39.0826667 L43.008,39.0826667 L43.008,40.1066667 L41.6426667,40.1066667 L41.6426667,45.3973333 C41.6426667,46.4213333 42.1546667,46.7626667 43.008,46.7626667 L43.008,47.9573333 C42.496,47.9573333 41.8133333,47.9573333 41.1306667,47.4453333 Z" id="Shape"></path>
                        <path d="M48.128,47.9573333 L48.128,47.2746667 C47.9573333,47.4453333 47.7866667,47.7866667 47.616,47.7866667 C47.2746667,47.9573333 46.9333333,48.128 46.592,48.128 C45.9093333,48.128 45.3973333,47.9573333 45.056,47.4453333 C44.7146667,47.104 44.544,46.592 44.544,45.568 L44.544,38.912 L45.9093333,38.912 L45.9093333,45.568 C45.9093333,46.4213333 46.4213333,46.7626667 46.9333333,46.7626667 C47.4453333,46.7626667 47.9573333,46.4213333 47.9573333,45.568 L47.9573333,38.912 L49.3226667,38.912 L49.3226667,47.9573333 L48.128,47.9573333 Z" id="Shape"></path>
                        <path d="M54.4426667,40.1066667 C53.4186667,40.1066667 52.736,40.7893333 52.736,41.8133333 L52.736,47.9573333 L51.3706667,47.9573333 L51.3706667,38.912 L52.736,38.912 L52.736,39.936 C52.9066667,39.7653333 53.0773333,39.424 53.4186667,39.2533333 C53.76,38.912 54.272,38.7413333 54.9546667,38.7413333 L54.9546667,40.1066667 L54.4426667,40.1066667 L54.4426667,40.1066667 Z" id="Shape"></path>
                        <path d="M57.1733333,43.8613333 C57.1733333,45.2266667 57.1733333,46.08 57.5146667,46.592 C57.6853333,46.7626667 57.856,46.9333333 58.368,46.9333333 C58.7093333,46.9333333 58.88,46.7626667 59.2213333,46.592 C59.392,46.4213333 59.5626667,45.9093333 59.5626667,45.568 L60.928,45.568 C60.928,46.4213333 60.7573333,47.104 60.2453333,47.616 C59.7333333,48.128 59.2213333,48.2986667 58.5386667,48.2986667 C57.6853333,48.2986667 57.1733333,48.128 56.832,47.616 C56.1493333,46.9333333 55.9786667,45.568 55.9786667,43.6906667 C55.9786667,41.8133333 56.1493333,40.448 56.832,39.7653333 C57.344,39.2533333 57.856,39.0826667 58.5386667,39.0826667 C59.2213333,39.0826667 59.904,39.2533333 60.2453333,39.7653333 C60.928,40.6186667 61.0986667,42.1546667 61.0986667,44.032 L57.1733333,44.032 L57.1733333,43.8613333 Z M59.0506667,40.448 C58.88,40.2773333 58.5386667,40.1066667 58.1973333,40.1066667 C57.856,40.1066667 57.5146667,40.2773333 57.344,40.448 C57.0026667,40.7893333 57.0026667,41.472 57.0026667,42.6666667 L59.2213333,42.6666667 C59.392,41.472 59.392,40.7893333 59.0506667,40.448 Z" id="Shape"></path>
                    </g>
                    <path d="M46.592,126.293333 C50.5173333,133.973333 53.9306667,143.872 56.32,151.210667 L56.32,100.181333 L55.9786667,100.181333 C45.3973333,99.1573333 37.0346667,90.112 37.0346667,79.1893333 L34.9866667,46.2506667 C34.9866667,46.2506667 39.424,48.2986667 49.152,49.152 C51.712,46.7626667 54.784,44.544 58.0266667,42.496 C61.2693333,44.544 64.3413333,46.9333333 66.9013333,49.152 C76.288,48.2986667 81.0666667,46.2506667 81.0666667,46.2506667 L79.0186667,79.1893333 C79.0186667,90.112 70.656,98.9866667 60.0746667,100.181333 L59.7333333,100.181333 L59.7333333,153.770667 C62.8053333,147.114667 66.2186667,140.117333 70.144,133.802667 C77.9946667,120.832 86.3573333,118.954667 86.3573333,118.954667 C86.3573333,118.954667 84.8213333,131.072 66.7306667,170.325333 L116.906667,138.922667 L96.768,52.3946667 L58.88,0.170666667 L58.5386667,0.170666667 L20.48,52.3946667 L0.341333333,139.093333 L50.688,170.496 C30.3786667,122.368 28.16,115.882667 22.528,105.642667 C22.528,105.642667 39.7653333,113.152 46.592,126.293333 Z" id="Shape"></path>
                </g>
            </g>
        </g>
    </g>
</svg>