<?xml version="1.0" encoding="utf-8"?>
<!-- Generator: Adobe Illustrator 22.0.0, SVG Export Plug-In . SVG Version: 6.00 Build 0)  -->
<svg version="1.1" xmlns="http://www.w3.org/2000/svg" xmlns:xlink="http://www.w3.org/1999/xlink" x="0px" y="0px"
	 viewBox="0 0 161.3 130.3" style="enable-background:new 0 0 161.3 130.3;" xml:space="preserve">
<style type="text/css">
	.st0{fill:#FFFFFF;}
</style>
<g id="Laag_2">
</g>
<g id="Laag_1">
	<g>
		<path class="st0" d="M88.4,85l-0.7-3.6h-3.1L83.8,85h-1.2l3-13.3h1L89.6,85H88.4z M86.1,73.7l-1.3,6.7h2.7L86.1,73.7z"/>
		<path class="st0" d="M97.9,85V74.3l-2.4,7h-0.8l-2.4-6.8V85h-1.1V71.7h1.1l2.8,7.8l2.8-7.8H99V85H97.9z"/>
		<path class="st0" d="M106.3,84.4c-0.4,0.4-1.1,0.7-2.1,0.7c-0.9,0-1.6-0.2-2.1-0.7c-0.6-0.6-0.8-1.3-0.8-2.7h1.1
			c0,1,0.1,1.6,0.5,2c0.3,0.3,0.7,0.4,1.2,0.4c0.6,0,1-0.2,1.3-0.4c0.4-0.5,0.5-1,0.5-2.1c0-1.7-0.3-2.3-1.4-2.7l-1.4-0.6
			c-1.4-0.6-1.8-1.3-1.8-3.3c0-1.1,0.3-2.1,0.9-2.6c0.5-0.5,1.1-0.7,1.9-0.7c0.9,0,1.5,0.3,2,0.7c0.7,0.7,0.8,1.4,0.8,2.6H106
			c0-0.8-0.1-1.4-0.5-1.8c-0.3-0.3-0.7-0.5-1.2-0.5c-0.5,0-0.9,0.2-1.2,0.4c-0.4,0.4-0.6,1.1-0.6,1.9c0,1.5,0.2,2,1.4,2.5l1.4,0.6
			c1.4,0.6,1.7,1.6,1.7,3.5C107.1,83,106.9,83.8,106.3,84.4z"/>
		<path class="st0" d="M111.9,72.7V85h-1.1V72.7h-2.2v-1h5.5v1H111.9z"/>
		<path class="st0" d="M116.1,85V71.7h4.6v1h-3.5v5.2h3v1h-3V84h3.5v1H116.1z"/>
		<path class="st0" d="M128,85l-1.9-6h-1.7v6h-1.1V71.7h2.6c1.6,0,2.9,0.6,2.9,3.7c0,2.1-0.5,3-1.6,3.5l2.1,6.2H128z M125.9,72.7
			h-1.5v5.4h1.5c1.3,0,1.7-1,1.7-2.7S127.2,72.7,125.9,72.7z"/>
		<path class="st0" d="M136.3,84.3c-0.4,0.5-1.1,0.8-2,0.8h-2.7V71.7h2.7c0.9,0,1.5,0.3,2,0.8c0.8,0.9,0.9,1.9,0.9,5.9
			C137.2,82.4,137.1,83.4,136.3,84.3z M135.4,73.2c-0.3-0.3-0.7-0.5-1.2-0.5h-1.6V84h1.6c0.5,0,1-0.2,1.2-0.5
			c0.6-0.6,0.7-1.4,0.7-5.2S136,73.8,135.4,73.2z"/>
		<path class="st0" d="M144.4,85l-0.7-3.6h-3.1l-0.7,3.6h-1.2l3-13.3h1l2.9,13.3H144.4z M142.1,73.7l-1.3,6.7h2.7L142.1,73.7z"/>
		<path class="st0" d="M154,85V74.3l-2.4,7h-0.8l-2.4-6.8V85h-1.1V71.7h1.1l2.8,7.8l2.8-7.8h1.1V85H154z"/>
	</g>
	<g>
		<path class="st0" d="M82.5,67.7V38.1h12.6v4h-8.4v8.7h7.3v4h-7.3v8.7h8.4v4.2H82.5z"/>
		<path class="st0" d="M97.6,45.1c0-1.2,0.2-2.2,0.6-3.2c0.4-0.9,1-1.7,1.7-2.3c0.7-0.6,1.4-1,2.3-1.3c0.8-0.3,1.7-0.5,2.6-0.5
			c0.9,0,1.7,0.2,2.6,0.5c0.8,0.3,1.6,0.7,2.3,1.3c0.7,0.6,1.2,1.4,1.6,2.3c0.4,0.9,0.6,2,0.6,3.2v15.6c0,1.2-0.2,2.3-0.6,3.2
			c-0.4,0.9-1,1.6-1.6,2.2c-0.7,0.6-1.5,1.1-2.3,1.4s-1.7,0.5-2.6,0.5c-0.9,0-1.7-0.2-2.6-0.5c-0.8-0.3-1.6-0.8-2.3-1.4
			c-0.7-0.6-1.2-1.3-1.7-2.2c-0.4-0.9-0.6-2-0.6-3.2V45.1z M101.9,60.7c0,1,0.3,1.8,0.9,2.3c0.6,0.5,1.2,0.7,2,0.7
			c0.8,0,1.4-0.2,2-0.7c0.6-0.5,0.9-1.2,0.9-2.3V45.1c0-1-0.3-1.8-0.9-2.3c-0.6-0.5-1.2-0.7-2-0.7c-0.8,0-1.4,0.2-2,0.7
			c-0.6,0.5-0.9,1.2-0.9,2.3V60.7z"/>
		<path class="st0" d="M129.3,46.6h-4.2v-1c0-1-0.2-1.8-0.7-2.5c-0.5-0.7-1.2-1.1-2.3-1.1c-0.6,0-1.1,0.1-1.4,0.3s-0.7,0.5-0.9,0.8
			c-0.2,0.4-0.4,0.8-0.5,1.2s-0.1,0.9-0.1,1.4c0,0.6,0,1.1,0.1,1.5c0,0.4,0.1,0.7,0.3,1c0.2,0.3,0.4,0.6,0.7,0.8
			c0.3,0.2,0.8,0.4,1.3,0.7l3.2,1.3c0.9,0.4,1.7,0.8,2.3,1.3c0.6,0.5,1,1,1.4,1.7c0.3,0.7,0.5,1.4,0.6,2.3s0.2,1.8,0.2,2.9
			c0,1.2-0.1,2.4-0.4,3.5c-0.2,1.1-0.7,2-1.2,2.7c-0.6,0.8-1.3,1.4-2.3,1.8c-0.9,0.4-2.1,0.7-3.5,0.7c-1,0-2-0.2-2.9-0.5
			s-1.6-0.9-2.3-1.5c-0.6-0.6-1.1-1.4-1.5-2.2c-0.4-0.8-0.6-1.8-0.6-2.8v-1.6h4.2v1.3c0,0.8,0.2,1.5,0.7,2.1s1.2,0.9,2.3,0.9
			c0.7,0,1.3-0.1,1.7-0.3c0.4-0.2,0.7-0.5,0.9-0.9c0.2-0.4,0.4-0.9,0.4-1.4c0-0.5,0.1-1.1,0.1-1.8c0-0.8,0-1.4-0.1-1.9
			s-0.2-0.9-0.3-1.2c-0.2-0.3-0.5-0.6-0.8-0.7c-0.3-0.2-0.7-0.4-1.3-0.6l-3-1.2c-1.8-0.7-3.1-1.7-3.7-3c-0.6-1.2-0.9-2.8-0.9-4.6
			c0-1.1,0.2-2.2,0.5-3.2c0.3-1,0.8-1.9,1.4-2.6c0.6-0.7,1.3-1.3,2.2-1.7c0.9-0.4,2-0.6,3.2-0.6c1.1,0,2,0.2,2.9,0.6
			c0.9,0.4,1.6,0.9,2.3,1.5c1.3,1.3,1.9,2.9,1.9,4.6V46.6z"/>
		<path class="st0" d="M132.6,67.7V38.1h4.2v29.6H132.6z"/>
		<path class="st0" d="M140.7,45.1c0-1.2,0.2-2.2,0.6-3.2c0.4-0.9,1-1.7,1.7-2.3c0.7-0.6,1.4-1,2.3-1.3c0.8-0.3,1.7-0.5,2.6-0.5
			c0.9,0,1.7,0.2,2.6,0.5c0.8,0.3,1.6,0.7,2.3,1.3c0.7,0.6,1.2,1.4,1.6,2.3c0.4,0.9,0.6,2,0.6,3.2v15.6c0,1.2-0.2,2.3-0.6,3.2
			c-0.4,0.9-1,1.6-1.6,2.2c-0.7,0.6-1.5,1.1-2.3,1.4s-1.7,0.5-2.6,0.5c-0.9,0-1.7-0.2-2.6-0.5c-0.8-0.3-1.6-0.8-2.3-1.4
			c-0.7-0.6-1.2-1.3-1.7-2.2c-0.4-0.9-0.6-2-0.6-3.2V45.1z M144.9,60.7c0,1,0.3,1.8,0.9,2.3c0.6,0.5,1.2,0.7,2,0.7
			c0.8,0,1.4-0.2,2-0.7c0.6-0.5,0.9-1.2,0.9-2.3V45.1c0-1-0.3-1.8-0.9-2.3c-0.6-0.5-1.2-0.7-2-0.7c-0.8,0-1.4,0.2-2,0.7
			c-0.6,0.5-0.9,1.2-0.9,2.3V60.7z"/>
	</g>
	<g>
		<path class="st0" d="M87.9,102.7H87l-1.1-5.8l-1.1,5.8h-0.9l-1.3-7.2h1l0.7,5.8l1.1-5.8h1l1.1,5.8l0.7-5.8h1L87.9,102.7z"/>
		<path class="st0" d="M91.9,102.7v-3.9c0-0.5-0.3-0.7-0.6-0.7s-0.6,0.2-0.6,0.7v3.9h-0.8v-7.2h0.8v2.4c0.1-0.1,0.2-0.2,0.3-0.3
			c0.2-0.1,0.4-0.2,0.6-0.2c0.4,0,0.7,0.1,0.9,0.4c0.2,0.2,0.3,0.5,0.3,1.1v3.9H91.9z"/>
		<path class="st0" d="M94.5,100.3c0,0.8,0,1.3,0.2,1.6c0.1,0.1,0.2,0.2,0.5,0.2c0.2,0,0.3-0.1,0.5-0.2c0.1-0.1,0.2-0.4,0.2-0.6h0.8
			c0,0.5-0.1,0.9-0.4,1.2c-0.3,0.3-0.6,0.4-1,0.4c-0.5,0-0.8-0.1-1-0.4c-0.4-0.4-0.5-1.2-0.5-2.3s0.1-1.9,0.5-2.3
			c0.3-0.3,0.6-0.4,1-0.4c0.4,0,0.8,0.1,1,0.4c0.4,0.5,0.5,1.4,0.5,2.5H94.5z M95.6,98.3c-0.1-0.1-0.3-0.2-0.5-0.2s-0.4,0.1-0.5,0.2
			c-0.2,0.2-0.2,0.6-0.2,1.3h1.3C95.8,99,95.8,98.5,95.6,98.3z"/>
		<path class="st0" d="M99.4,98.2c-0.6,0-1,0.4-1,1v3.6h-0.8v-5.3h0.8V98c0.1-0.1,0.2-0.3,0.4-0.4c0.2-0.2,0.5-0.3,0.9-0.3v0.8H99.4
			z"/>
		<path class="st0" d="M100.9,100.3c0,0.8,0,1.3,0.2,1.6c0.1,0.1,0.2,0.2,0.5,0.2c0.2,0,0.3-0.1,0.5-0.2c0.1-0.1,0.2-0.4,0.2-0.6
			h0.8c0,0.5-0.1,0.9-0.4,1.2c-0.3,0.3-0.6,0.4-1,0.4c-0.5,0-0.8-0.1-1-0.4c-0.4-0.4-0.5-1.2-0.5-2.3s0.1-1.9,0.5-2.3
			c0.3-0.3,0.6-0.4,1-0.4c0.4,0,0.8,0.1,1,0.4c0.4,0.5,0.5,1.4,0.5,2.5H100.9z M102.1,98.3c-0.1-0.1-0.3-0.2-0.5-0.2
			s-0.4,0.1-0.5,0.2c-0.2,0.2-0.2,0.6-0.2,1.3h1.3C102.3,99,102.3,98.5,102.1,98.3z"/>
		<path class="st0" d="M106.6,102.4c-0.3-0.2-0.5-0.6-0.5-1.2v-3.1h-0.6v-0.6h0.6V96h0.8v1.4h0.8v0.6H107v3.1c0,0.6,0.3,0.8,0.8,0.8
			v0.7C107.4,102.7,107,102.7,106.6,102.4z"/>
		<path class="st0" d="M110.4,98.2c-0.6,0-1,0.4-1,1v3.6h-0.8v-5.3h0.8V98c0.1-0.1,0.2-0.3,0.4-0.4c0.2-0.2,0.5-0.3,0.9-0.3v0.8
			H110.4z"/>
		<path class="st0" d="M113.5,102.7v-0.4c-0.1,0.1-0.2,0.3-0.3,0.3c-0.2,0.1-0.4,0.2-0.6,0.2c-0.4,0-0.7-0.1-0.9-0.4
			c-0.2-0.2-0.3-0.5-0.3-1.1v-3.9h0.8v3.9c0,0.5,0.3,0.7,0.6,0.7c0.3,0,0.6-0.2,0.6-0.7v-3.9h0.8v5.3H113.5z"/>
		<path class="st0" d="M117.7,102.4c-0.3,0.3-0.7,0.4-1.1,0.4s-0.8-0.1-1.1-0.4c-0.3-0.3-0.4-0.7-0.4-1.2h0.8c0,0.3,0.1,0.5,0.2,0.6
			c0.1,0.1,0.3,0.2,0.5,0.2c0.2,0,0.4-0.1,0.5-0.2c0.1-0.1,0.2-0.3,0.2-0.5c0-0.2,0-0.3-0.1-0.5c-0.1-0.2-0.3-0.3-0.5-0.4l-0.7-0.3
			c-0.3-0.2-0.6-0.4-0.7-0.6c-0.1-0.2-0.2-0.4-0.2-0.7c0-0.5,0.2-0.8,0.4-1.1c0.3-0.3,0.6-0.4,1-0.4c0.4,0,0.8,0.1,1,0.4
			c0.3,0.3,0.4,0.6,0.4,1.2h-0.8c0-0.3-0.1-0.5-0.2-0.6c-0.1-0.1-0.3-0.2-0.4-0.2c-0.2,0-0.3,0.1-0.5,0.2c-0.1,0.1-0.2,0.3-0.2,0.5
			c0,0.2,0,0.3,0.1,0.4c0.1,0.1,0.2,0.2,0.4,0.3l0.7,0.3c0.4,0.2,0.6,0.4,0.7,0.6c0.1,0.2,0.2,0.5,0.2,0.8
			C118.2,101.8,118,102.1,117.7,102.4z"/>
		<path class="st0" d="M119.7,102.4c-0.3-0.2-0.5-0.6-0.5-1.2v-3.1h-0.6v-0.6h0.6V96h0.8v1.4h0.8v0.6h-0.8v3.1
			c0,0.6,0.3,0.8,0.8,0.8v0.7C120.5,102.7,120.1,102.7,119.7,102.4z"/>
		<path class="st0" d="M87.3,112.9V109c0-0.5-0.3-0.7-0.6-0.7s-0.6,0.2-0.6,0.7v3.9h-0.8V109c0-0.5-0.3-0.7-0.6-0.7S84,108.5,84,109
			v3.9h-0.8v-5.3H84v0.4c0.1-0.1,0.2-0.3,0.3-0.3c0.2-0.1,0.4-0.2,0.6-0.2c0.4,0,0.8,0.2,1,0.5c0.1-0.1,0.3-0.3,0.4-0.4
			c0.2-0.1,0.4-0.2,0.6-0.2c0.5,0,0.7,0.1,0.9,0.4c0.2,0.2,0.3,0.5,0.3,1.1v3.9H87.3z"/>
		<path class="st0" d="M89.9,110.5c0,0.8,0,1.3,0.2,1.6c0.1,0.1,0.2,0.2,0.5,0.2c0.2,0,0.3-0.1,0.5-0.2c0.1-0.1,0.2-0.4,0.2-0.6h0.8
			c0,0.5-0.1,0.9-0.4,1.2c-0.3,0.3-0.6,0.4-1,0.4c-0.5,0-0.8-0.1-1-0.4c-0.4-0.4-0.5-1.2-0.5-2.3s0.1-1.9,0.5-2.3
			c0.3-0.3,0.6-0.4,1-0.4c0.4,0,0.8,0.1,1,0.4c0.4,0.5,0.5,1.4,0.5,2.5H89.9z M91.1,108.5c-0.1-0.1-0.3-0.2-0.5-0.2
			s-0.4,0.1-0.5,0.2c-0.2,0.2-0.2,0.6-0.2,1.3h1.3C91.3,109.1,91.2,108.7,91.1,108.5z"/>
		<path class="st0" d="M93.7,110.5c0,0.8,0,1.3,0.2,1.6c0.1,0.1,0.2,0.2,0.5,0.2c0.2,0,0.3-0.1,0.5-0.2c0.1-0.1,0.2-0.4,0.2-0.6h0.8
			c0,0.5-0.1,0.9-0.4,1.2c-0.3,0.3-0.6,0.4-1,0.4c-0.5,0-0.8-0.1-1-0.4c-0.4-0.4-0.5-1.2-0.5-2.3s0.1-1.9,0.5-2.3
			c0.3-0.3,0.6-0.4,1-0.4c0.4,0,0.8,0.1,1,0.4c0.4,0.5,0.5,1.4,0.5,2.5H93.7z M94.8,108.5c-0.1-0.1-0.3-0.2-0.5-0.2
			c-0.2,0-0.4,0.1-0.5,0.2c-0.2,0.2-0.2,0.6-0.2,1.3H95C95,109.1,95,108.7,94.8,108.5z"/>
		<path class="st0" d="M97.5,112.6c-0.3-0.2-0.5-0.6-0.5-1.2v-3.1h-0.6v-0.6H97v-1.4h0.8v1.4h0.8v0.6h-0.8v3.1
			c0,0.6,0.3,0.8,0.8,0.8v0.7C98.2,112.9,97.8,112.9,97.5,112.6z"/>
		<path class="st0" d="M101.8,112.6c-0.3,0.3-0.7,0.4-1.1,0.4s-0.8-0.1-1.1-0.4c-0.3-0.3-0.4-0.7-0.4-1.2h0.8c0,0.3,0.1,0.5,0.2,0.6
			c0.1,0.1,0.3,0.2,0.5,0.2c0.2,0,0.4-0.1,0.5-0.2c0.1-0.1,0.2-0.3,0.2-0.5c0-0.2,0-0.3-0.1-0.5c-0.1-0.2-0.3-0.3-0.5-0.4l-0.7-0.3
			c-0.3-0.2-0.6-0.4-0.7-0.6c-0.1-0.2-0.2-0.4-0.2-0.7c0-0.5,0.2-0.8,0.4-1.1c0.3-0.3,0.6-0.4,1-0.4c0.4,0,0.8,0.1,1,0.4
			c0.3,0.3,0.4,0.6,0.4,1.2h-0.8c0-0.3-0.1-0.5-0.2-0.6c-0.1-0.1-0.3-0.2-0.4-0.2c-0.2,0-0.3,0.1-0.5,0.2c-0.1,0.1-0.2,0.3-0.2,0.5
			c0,0.2,0,0.3,0.1,0.4c0.1,0.1,0.2,0.2,0.4,0.3l0.7,0.3c0.4,0.2,0.6,0.4,0.7,0.6c0.1,0.2,0.2,0.5,0.2,0.8
			C102.2,111.9,102.1,112.3,101.8,112.6z"/>
		<path class="st0" d="M84.5,123.9c-0.2,0.9-0.9,1.1-1.8,1.1v-0.7c0.5,0,0.8-0.1,0.9-0.6l0.2-0.6l-1.3-5.3h0.9l0.8,4l0.8-4H86
			L84.5,123.9z"/>
		<path class="st0" d="M89.1,122.7c-0.3,0.4-0.7,0.5-1.1,0.5s-0.8-0.1-1.1-0.5c-0.3-0.4-0.4-1.2-0.4-2.2c0-1.1,0.1-1.8,0.4-2.2
			c0.3-0.4,0.6-0.5,1.1-0.5s0.9,0.1,1.1,0.5c0.3,0.4,0.4,1.2,0.4,2.2C89.5,121.5,89.5,122.3,89.1,122.7z M88.5,118.7
			c-0.1-0.1-0.3-0.2-0.5-0.2s-0.4,0.1-0.5,0.2c-0.2,0.3-0.2,0.8-0.2,1.8s0,1.5,0.2,1.8c0.1,0.1,0.3,0.2,0.5,0.2s0.4-0.1,0.5-0.2
			c0.2-0.3,0.2-0.8,0.2-1.8S88.7,119,88.5,118.7z"/>
		<path class="st0" d="M92.6,123.1v-0.4c-0.1,0.1-0.2,0.3-0.3,0.3c-0.2,0.1-0.4,0.2-0.6,0.2c-0.4,0-0.7-0.1-0.9-0.4
			c-0.2-0.2-0.3-0.5-0.3-1.1v-3.9h0.8v3.9c0,0.5,0.3,0.7,0.6,0.7c0.3,0,0.6-0.2,0.6-0.7v-3.9h0.8v5.3H92.6z"/>
		<path class="st0" d="M96.3,118.5c-0.6,0-1,0.4-1,1v3.6h-0.8v-5.3h0.8v0.6c0.1-0.1,0.2-0.3,0.4-0.4c0.2-0.2,0.5-0.3,0.9-0.3v0.8
			H96.3z"/>
		<path class="st0" d="M100.2,118.5v4.6h-0.8v-4.6h-0.6v-0.6h0.6v-0.5c0-0.5,0.2-0.9,0.5-1.2c0.3-0.3,0.7-0.3,1.2-0.3v0.7
			c-0.5,0-0.8,0.3-0.8,0.8v0.5h0.8v0.6H100.2z"/>
		<path class="st0" d="M103.9,123.1v-0.4c-0.1,0.1-0.2,0.3-0.3,0.3c-0.2,0.1-0.4,0.2-0.6,0.2c-0.4,0-0.7-0.1-0.9-0.4
			c-0.2-0.2-0.3-0.5-0.3-1.1v-3.9h0.8v3.9c0,0.5,0.3,0.7,0.6,0.7c0.3,0,0.6-0.2,0.6-0.7v-3.9h0.8v5.3H103.9z"/>
		<path class="st0" d="M106.5,122.8c-0.3-0.2-0.5-0.6-0.5-1.2v-3.1h-0.6v-0.6h0.6v-1.4h0.8v1.4h0.8v0.6h-0.8v3.1
			c0,0.6,0.3,0.8,0.8,0.8v0.7C107.2,123.1,106.8,123.1,106.5,122.8z"/>
		<path class="st0" d="M110.5,123.1v-0.4c-0.1,0.1-0.2,0.3-0.3,0.3c-0.2,0.1-0.4,0.2-0.6,0.2c-0.4,0-0.7-0.1-0.9-0.4
			c-0.2-0.2-0.3-0.5-0.3-1.1v-3.9h0.8v3.9c0,0.5,0.3,0.7,0.6,0.7c0.3,0,0.6-0.2,0.6-0.7v-3.9h0.8v5.3H110.5z"/>
		<path class="st0" d="M114.3,118.5c-0.6,0-1,0.4-1,1v3.6h-0.8v-5.3h0.8v0.6c0.1-0.1,0.2-0.3,0.4-0.4c0.2-0.2,0.5-0.3,0.9-0.3v0.8
			H114.3z"/>
		<path class="st0" d="M115.8,120.7c0,0.8,0,1.3,0.2,1.6c0.1,0.1,0.2,0.2,0.5,0.2c0.2,0,0.3-0.1,0.5-0.2c0.1-0.1,0.2-0.4,0.2-0.6
			h0.8c0,0.5-0.1,0.9-0.4,1.2c-0.3,0.3-0.6,0.4-1,0.4c-0.5,0-0.8-0.1-1-0.4c-0.4-0.4-0.5-1.2-0.5-2.3s0.1-1.9,0.5-2.3
			c0.3-0.3,0.6-0.4,1-0.4c0.4,0,0.8,0.1,1,0.4c0.4,0.5,0.5,1.4,0.5,2.5H115.8z M117,118.7c-0.1-0.1-0.3-0.2-0.5-0.2
			s-0.4,0.1-0.5,0.2c-0.2,0.2-0.2,0.6-0.2,1.3h1.3C117.2,119.3,117.1,118.9,117,118.7z"/>
	</g>
	<g>
		<path class="st0" d="M32.6,80c2.3,4.5,4.3,10.3,5.7,14.6V64.7h-0.2C31.9,64.1,27,58.8,27,52.4l-1.2-19.3c0,0,2.6,1.2,8.3,1.7
			c1.5-1.4,3.3-2.7,5.2-3.9c1.9,1.2,3.7,2.6,5.2,3.9c5.5-0.5,8.3-1.7,8.3-1.7l-1.2,19.3c0,6.4-4.9,11.6-11.1,12.3h-0.2v31.4
			c1.8-3.9,3.8-8,6.1-11.7c4.6-7.6,9.5-8.7,9.5-8.7s-0.9,7.1-11.5,30.1l29.4-18.4L62.1,36.7L39.8,6.1h-0.2L17.3,36.7L5.5,87.5
			L35,105.9c-11.9-28.2-13.2-32-16.5-38C18.5,67.9,28.6,72.3,32.6,80z"/>
	</g>
</g>
</svg>
