<?xml version="1.0" encoding="utf-8"?>
<!-- Generator: Adobe Illustrator 22.0.0, SVG Export Plug-In . SVG Version: 6.00 Build 0)  -->
<svg version="1.1" id="Laag_1" xmlns="http://www.w3.org/2000/svg" xmlns:xlink="http://www.w3.org/1999/xlink" x="0px" y="0px"
	 viewBox="0 0 16 17" style="enable-background:new 0 0 16 17;" xml:space="preserve">
<style type="text/css">
	.st0{fill:#010053;}
</style>
<g id="EOS-Amsterdam">
	<g id="icon-steemit">
		<g id="steemit">
			<g id="Layer_1">
				<path id="Shape" class="st0" d="M2,2.1C1.3,2.7,0.6,3.5,0.3,4.4c-0.4,1.1,0.1,2.2,0.6,3.1c0.5,1,1,1.9,1.4,2.9
					c0.4,0.8,0.8,1.7,0.7,2.6c-0.1,0.6-0.3,1.2-0.4,1.9c-0.1,0.4,0.3,0,0.4-0.1c0.8-0.7,1.7-1.5,2-2.6c0.2-0.5,0.1-1-0.1-1.5
					c-0.2-0.5-0.4-1-0.6-1.4c-0.4-1-0.9-2-1.4-2.9C2.8,6,2.6,5.6,2.4,5.2C2.3,4.8,2.2,4.4,2.2,4c0-0.4,0-0.7,0-1
					c0-0.3,0.1-0.5,0.1-0.7C2.3,2,2.2,2,2,2.1z M12.8,2.1c-0.7,0.6-1.5,1.4-1.8,2.3c-0.4,1.1,0.1,2.2,0.6,3.1c0.5,1,1,1.9,1.4,2.9
					c0.4,0.8,0.8,1.7,0.7,2.6c-0.1,0.6-0.3,1.2-0.4,1.9c-0.1,0.4,0.3,0,0.4-0.1c0.8-0.7,1.7-1.5,2-2.6c0.2-0.5,0.1-1-0.1-1.5
					c-0.2-0.5-0.4-1-0.6-1.4c-0.4-1-0.9-2-1.4-2.9c-0.2-0.4-0.4-0.7-0.5-1.1C13.1,4.8,13,4.4,12.9,4c0-0.4,0-0.7,0-1
					c0-0.3,0.1-0.5,0.1-0.7C13.1,2,13,2,12.8,2.1z"/>
				<path id="Shape_1_" class="st0" d="M7.3,0.3C6.4,1,5.6,1.8,5.1,2.8C4.7,3.5,4.7,4.2,4.8,4.9c0.2,0.8,0.6,1.7,0.9,2.5
					c0.7,1.6,1.6,3,2.2,4.6c0.2,0.6,0.5,1.2,0.5,1.8c0,0.8-0.2,1.6-0.4,2.3c0,0.2-0.2,0.5-0.2,0.7c0,0.2,0.1,0.1,0.2,0
					c0.4-0.3,0.8-0.7,1.2-1c1-0.9,2.1-2.1,2-3.6c0-0.6-0.3-1.1-0.6-1.7c-0.3-0.6-0.5-1.2-0.8-1.8C9.4,7.6,8.8,6.5,8.3,5.4
					C8.1,5,7.9,4.6,7.7,4.2C7.5,3.7,7.4,3.1,7.4,2.5c0-0.4,0-0.9,0-1.3c0-0.3,0.1-0.5,0.1-0.8C7.6,0.2,7.5,0.2,7.3,0.3L7.3,0.3z"/>
			</g>
		</g>
	</g>
</g>
</svg>
